<svg width="16" height="16" viewBox="0 0 16 16" fill="none" xmlns="http://www.w3.org/2000/svg">
<mask id="path-1-inside-1" fill="white">
<path fill-rule="evenodd" clip-rule="evenodd" d="M1 0C0.447715 0 0 0.447716 0 1V9.90909C0 10.4614 0.447715 10.9091 1 10.9091H3.75L3.75 15L6.91558 10.9091H14C14.5523 10.9091 15 10.4614 15 9.90909V1C15 0.447715 14.5523 0 14 0H1Z"/>
</mask>
<path fill-rule="evenodd" clip-rule="evenodd" d="M1 0C0.447715 0 0 0.447716 0 1V9.90909C0 10.4614 0.447715 10.9091 1 10.9091H3.75L3.75 15L6.91558 10.9091H14C14.5523 10.9091 15 10.4614 15 9.90909V1C15 0.447715 14.5523 0 14 0H1Z" fill="white"/>
<path d="M3.75 10.9091L4.25 10.9091L4.25 10.4091H3.75V10.9091ZM3.75 15L3.25 15L3.25 16.4632L4.14544 15.306L3.75 15ZM6.91558 10.9091V10.4091H6.67027L6.52015 10.6031L6.91558 10.9091ZM0.5 1C0.5 0.723858 0.723858 0.5 1 0.5V-0.5C0.171573 -0.5 -0.5 0.171574 -0.5 1H0.5ZM0.5 9.90909V1H-0.5V9.90909H0.5ZM1 10.4091C0.723857 10.4091 0.5 10.1852 0.5 9.90909H-0.5C-0.5 10.7375 0.171573 11.4091 1 11.4091V10.4091ZM3.75 10.4091H1V11.4091H3.75V10.4091ZM3.25 10.9091L3.25 15L4.25 15L4.25 10.9091L3.25 10.9091ZM4.14544 15.306L7.31102 11.2151L6.52015 10.6031L3.35456 14.694L4.14544 15.306ZM14 10.4091H6.91558V11.4091H14V10.4091ZM14.5 9.90909C14.5 10.1852 14.2761 10.4091 14 10.4091V11.4091C14.8284 11.4091 15.5 10.7375 15.5 9.90909H14.5ZM14.5 1V9.90909H15.5V1H14.5ZM14 0.5C14.2761 0.5 14.5 0.723857 14.5 1H15.5C15.5 0.171573 14.8284 -0.5 14 -0.5V0.5ZM1 0.5H14V-0.5H1V0.5Z" fill="#32312D" mask="url(#path-1-inside-1)"/>
<line x1="4" y1="5.5" x2="5" y2="5.5" stroke="#32312D"/>
<line x1="7" y1="5.5" x2="8" y2="5.5" stroke="#32312D"/>
<line x1="10" y1="5.5" x2="11" y2="5.5" stroke="#32312D"/>
<path fill-rule="evenodd" clip-rule="evenodd" d="M1 10.9091C1 11.4614 1.44772 11.9091 2 11.9091H3.75V10.9091H1ZM4.75 13.7077L6.91558 10.9091H14C14.5523 10.9091 15 10.4614 15 9.90909V1C15.5523 1 16 1.44772 16 2V10.9091C16 11.4614 15.5523 11.9091 15 11.9091H7.91558L4.75 16L4.75 13.7077Z" fill="#32312D"/>
</svg>
