<svg width="20" height="20" viewBox="0 0 20 20" fill="none" xmlns="http://www.w3.org/2000/svg">
<mask id="path-1-inside-1" fill="white">
<path fill-rule="evenodd" clip-rule="evenodd" d="M3 3C2.44772 3 2 3.44772 2 4V12.9091C2 13.4614 2.44772 13.9091 3 13.9091H5.75L5.75 18L8.91558 13.9091H16C16.5523 13.9091 17 13.4614 17 12.9091V4C17 3.44772 16.5523 3 16 3H3Z"/>
</mask>
<path fill-rule="evenodd" clip-rule="evenodd" d="M3 3C2.44772 3 2 3.44772 2 4V12.9091C2 13.4614 2.44772 13.9091 3 13.9091H5.75L5.75 18L8.91558 13.9091H16C16.5523 13.9091 17 13.4614 17 12.9091V4C17 3.44772 16.5523 3 16 3H3Z" fill="white"/>
<path d="M5.75 13.9091L6.25 13.9091L6.25 13.4091H5.75V13.9091ZM5.75 18L5.25 18L5.25 19.4632L6.14544 18.306L5.75 18ZM8.91558 13.9091V13.4091H8.67027L8.52015 13.6031L8.91558 13.9091ZM2.5 4C2.5 3.72386 2.72386 3.5 3 3.5V2.5C2.17157 2.5 1.5 3.17157 1.5 4H2.5ZM2.5 12.9091V4H1.5V12.9091H2.5ZM3 13.4091C2.72386 13.4091 2.5 13.1852 2.5 12.9091H1.5C1.5 13.7375 2.17157 14.4091 3 14.4091V13.4091ZM5.75 13.4091H3V14.4091H5.75V13.4091ZM5.25 13.9091L5.25 18L6.25 18L6.25 13.9091L5.25 13.9091ZM6.14544 18.306L9.31102 14.2151L8.52015 13.6031L5.35456 17.694L6.14544 18.306ZM16 13.4091H8.91558V14.4091H16V13.4091ZM16.5 12.9091C16.5 13.1852 16.2761 13.4091 16 13.4091V14.4091C16.8284 14.4091 17.5 13.7375 17.5 12.9091H16.5ZM16.5 4V12.9091H17.5V4H16.5ZM16 3.5C16.2761 3.5 16.5 3.72386 16.5 4H17.5C17.5 3.17157 16.8284 2.5 16 2.5V3.5ZM3 3.5H16V2.5H3V3.5Z" fill="#A6A49F" mask="url(#path-1-inside-1)"/>
<line x1="6" y1="8.5" x2="7" y2="8.5" stroke="#A6A49F"/>
<line x1="9" y1="8.5" x2="10" y2="8.5" stroke="#A6A49F"/>
<line x1="12" y1="8.5" x2="13" y2="8.5" stroke="#A6A49F"/>
<path fill-rule="evenodd" clip-rule="evenodd" d="M3 13.9091C3 14.4614 3.44772 14.9091 4 14.9091H5.75V13.9091H3ZM6.75 16.7077L8.91558 13.9091H16C16.5523 13.9091 17 13.4614 17 12.9091V4C17.5523 4 18 4.44772 18 5V13.9091C18 14.4614 17.5523 14.9091 17 14.9091H9.91558L6.75 19L6.75 16.7077Z" fill="#A6A49F"/>
</svg>
