<svg width="20" height="20" viewBox="0 0 20 20" fill="none" xmlns="http://www.w3.org/2000/svg">
<path d="M15.7567 12.3349C15.5236 11.9711 15.6777 11.4609 15.6361 10.8908C15.6044 9.96219 15.2366 9.05081 14.4885 8.30655L11.9402 5.77196C11.9402 5.77196 11.4381 5.27238 10.9378 5.77478C10.4382 6.27683 10.9406 6.77677 10.9406 6.77677L12.0174 7.84821L12.9503 8.77616C12.9503 8.77616 12.6999 9.02719 11.6673 7.99981C10.6339 6.97209 8.17901 4.52882 8.17901 4.52882C8.17901 4.52882 7.6766 4.02924 7.17667 4.53164C6.67673 5.03369 7.17914 5.53328 7.17914 5.53328L10.4777 8.81565C10.4707 8.8086 10.2119 9.05081 10.2073 9.04622L6.67814 5.53469C6.67814 5.53469 6.17574 5.03475 5.6758 5.53715C5.17622 6.03956 5.67827 6.53914 5.67827 6.53914L9.20779 10.0514C9.21202 10.0556 8.96805 10.3126 8.9751 10.3197L5.93071 7.2901C5.93071 7.2901 5.4283 6.79052 4.92837 7.29292C4.42843 7.79533 4.93083 8.29526 4.93083 8.29526L8.16772 11.5159C8.19734 11.5452 7.98087 11.8301 8.01788 11.8671L5.68532 9.54616C5.68532 9.54616 5.18292 9.04658 4.68298 9.54898C4.18305 10.0514 4.68545 10.5513 4.68545 10.5513L8.48962 14.335C9.12494 14.9672 9.78776 15.2982 10.5958 15.4389C10.7605 15.4675 10.972 15.4745 11.058 15.4883C11.3306 15.532 11.5675 15.6374 11.883 15.8458C12.2885 16.1134 12.9062 16.2399 13.276 15.8705L14.5371 14.6097L15.7013 13.4455C16.0712 13.0753 16.0186 12.7439 15.7567 12.3349V12.3349Z" fill="#F5D59A"/>
<path fill-rule="evenodd" clip-rule="evenodd" d="M14.4885 8.30653C15.2367 9.0508 15.6044 9.96218 15.6361 10.8908C15.6504 11.0863 15.6416 11.2747 15.6334 11.4526C15.6176 11.7936 15.6035 12.0958 15.7567 12.3349C16.0186 12.7439 16.0712 13.0753 15.7013 13.4455L13.276 15.8704C12.9062 16.2399 12.2885 16.1134 11.8831 15.8458C11.5675 15.6374 11.3306 15.532 11.0581 15.4883C11.0236 15.4828 10.9691 15.4783 10.9055 15.4732C10.8102 15.4654 10.6946 15.456 10.5959 15.4389C9.78778 15.2982 9.12496 14.9672 8.48964 14.335L4.68547 10.5513C4.68547 10.5513 4.18307 10.0514 4.683 9.54897C4.88816 9.3428 5.09374 9.30537 5.26484 9.3329C5.51068 9.37246 5.68534 9.54615 5.68534 9.54615L8.01791 11.8671C7.99834 11.8475 8.04956 11.7588 8.09785 11.6751C8.14095 11.6004 8.18171 11.5297 8.16775 11.5159L5.93544 9.2948L4.93085 8.29525C4.93085 8.29525 4.42845 7.79532 4.92839 7.29291C5.13335 7.08694 5.33872 7.04938 5.50972 7.07676C5.75582 7.11617 5.93073 7.29009 5.93073 7.29009L8.97512 10.3197C8.97114 10.3157 9.04688 10.2324 9.113 10.1596C9.16422 10.1032 9.20966 10.0532 9.20781 10.0514L6.18061 7.03899L5.67829 6.53913C5.67829 6.53913 5.17624 6.03955 5.67582 5.53714C6.01121 5.20011 6.3477 5.31416 6.53288 5.42576C6.62373 5.48051 6.67816 5.53468 6.67816 5.53468L6.9292 5.78446L10.2073 9.04621C10.2094 9.04826 10.2621 9.00113 10.3204 8.94895C10.3928 8.88423 10.4738 8.81173 10.4777 8.81564L7.17916 5.53327C7.17916 5.53327 7.05359 5.40841 6.99047 5.2208C6.99046 5.22075 6.99049 5.22085 6.99047 5.2208C6.97985 5.1892 6.97095 5.15568 6.96477 5.12083C6.93424 4.94867 6.96883 4.74037 7.17669 4.53163C7.67662 4.02923 8.17903 4.52881 8.17903 4.52881C8.17903 4.52881 9.25011 5.59481 10.2751 6.61474C10.4154 6.75433 10.5548 6.89305 10.6905 7.02806C10.6905 7.02808 10.6905 7.02804 10.6905 7.02806C11.0643 7.40002 11.4099 7.74384 11.6673 7.9998C11.7018 8.03414 11.7355 8.06705 11.7682 8.09859C11.7683 8.0986 11.7682 8.09857 11.7682 8.09859C12.7164 9.01062 12.9503 8.77615 12.9503 8.77615L11.9173 7.74856L10.9407 6.77676C10.9407 6.77676 10.7658 6.60279 10.725 6.35704C10.6966 6.1862 10.733 5.98066 10.9378 5.77477C11.4381 5.27237 11.9402 5.77195 11.9402 5.77195L14.4885 8.30653ZM12.206 5.50464L12.2928 5.41744L14.8411 7.95203C15.6779 8.7845 16.0973 9.81332 16.1355 10.8643C16.151 11.0881 16.14 11.3289 16.1315 11.5143C16.1283 11.5853 16.1254 11.6481 16.1245 11.6988C16.1206 11.9276 16.1462 12.016 16.1777 12.0653C16.3262 12.2971 16.4666 12.5814 16.4659 12.9057C16.4653 13.2547 16.3039 13.5498 16.0551 13.7989L13.6296 16.224C13.3147 16.5386 12.909 16.6222 12.5554 16.5956C12.207 16.5694 11.8706 16.4366 11.6076 16.2631C11.3268 16.0776 11.1572 16.0106 10.9791 15.982C10.9792 15.982 10.9793 15.982 10.9791 15.982C10.9785 15.9819 10.9745 15.9813 10.966 15.9804C10.9565 15.9794 10.9443 15.9782 10.9288 15.9768C10.9092 15.9751 10.8899 15.9735 10.8679 15.9718C10.852 15.9705 10.8346 15.9691 10.8147 15.9674C10.73 15.9603 10.6165 15.95 10.5104 15.9316C9.60096 15.7732 8.84475 15.3937 8.13697 14.6895L4.33287 10.9058L4.68547 10.5513C4.33283 10.9057 4.33305 10.906 4.33287 10.9058L4.33207 10.905L4.3313 10.9043L4.32962 10.9026L4.32569 10.8986L4.31566 10.8881C4.30806 10.88 4.29863 10.8697 4.28782 10.8572C4.26631 10.8325 4.23866 10.7988 4.20863 10.757C4.14998 10.6753 4.07479 10.5525 4.02281 10.3978C3.97013 10.2411 3.93829 10.0418 3.98195 9.82069C4.02633 9.59587 4.14188 9.38391 4.32858 9.19629C4.47664 9.04749 4.64023 8.94337 4.81361 8.88393L4.57819 8.64969L4.93085 8.29525C4.57817 8.64968 4.57837 8.64987 4.57819 8.64969L4.57746 8.64896L4.57669 8.64819L4.57501 8.6465L4.57108 8.64249L4.56104 8.63199C4.55344 8.62391 4.54402 8.6136 4.53321 8.60118C4.51169 8.57648 4.48404 8.54273 4.45402 8.50091C4.39536 8.41922 4.32018 8.29644 4.26819 8.14177C4.21551 7.98501 4.18367 7.78575 4.22733 7.56463C4.27172 7.33982 4.38727 7.12785 4.57396 6.94023C4.73808 6.7753 4.92127 6.66525 5.11573 6.61012C5.07979 6.54597 5.04428 6.47069 5.01575 6.38579C4.9631 6.22908 4.93128 6.02989 4.97491 5.80885C5.01926 5.58412 5.13471 5.3722 5.32128 5.18459C5.50797 4.99697 5.71949 4.88025 5.94408 4.83476C6.14 4.79507 6.31901 4.81486 6.46653 4.85605C6.46909 4.83852 6.47213 4.82084 6.47565 4.80302C6.52005 4.57827 6.63562 4.36643 6.82227 4.17895M12.206 5.50464C12.2927 5.4174 12.2929 5.41755 12.2928 5.41744L12.2914 5.41605L12.2897 5.41438L12.2856 5.41046L12.2751 5.40048C12.267 5.39292 12.2566 5.38354 12.2441 5.37279C12.2193 5.3514 12.1854 5.32392 12.1435 5.29411C12.0615 5.23588 11.9383 5.16134 11.7834 5.11018C11.6264 5.05832 11.427 5.02756 11.2061 5.07236C10.9816 5.11789 10.7703 5.23444 10.5835 5.42197C10.4357 5.57057 10.3323 5.7346 10.2738 5.90807C10.1432 5.7781 10.0139 5.64946 9.88834 5.5245L8.53219 4.17486L8.17903 4.52881C8.53158 4.17426 8.53141 4.17409 8.53123 4.17391L8.53009 4.17279L8.52839 4.17112L8.52436 4.1672L8.51381 4.15722C8.50569 4.14967 8.49533 4.1403 8.48286 4.12955C8.45804 4.10817 8.42414 4.0807 8.38217 4.0509C8.30018 3.99269 8.17702 3.91817 8.02208 3.86702C7.86506 3.81519 7.66567 3.78442 7.44482 3.82922C7.22034 3.87475 7.00891 3.99143 6.82227 4.17895" fill="#32312D"/>
<path d="M1.80206 15.461C1.6952 15.461 1.58833 15.42 1.50693 15.3386C1.34372 15.1752 1.34372 14.9112 1.50693 14.7478L2.98925 13.2652C3.15246 13.1018 3.41628 13.1018 3.5795 13.2652C3.74272 13.4285 3.74272 13.6926 3.5795 13.8559L2.09719 15.339C2.01579 15.4204 1.90892 15.461 1.80206 15.461ZM4.61808 15.8462C4.57258 15.8462 4.52583 15.8386 4.47991 15.8228C4.26242 15.7467 4.14763 15.5086 4.22402 15.2905L4.62935 14.1321C4.70532 13.9144 4.94368 13.7999 5.16116 13.8755C5.37865 13.952 5.49344 14.1901 5.41705 14.4078L5.01172 15.5662C4.95161 15.7384 4.79048 15.8462 4.61808 15.8462ZM1.4176 12.6431C1.24562 12.6431 1.08449 12.5358 1.02396 12.3645C0.947152 12.1468 1.06111 11.9083 1.2786 11.8314L2.3201 11.4634C2.53842 11.3882 2.77594 11.5014 2.85274 11.7182C2.92955 11.9359 2.81559 12.1744 2.59811 12.2513L1.55661 12.6193C1.51027 12.6356 1.46352 12.6431 1.4176 12.6431ZM13.7153 4.70344C13.6084 4.70344 13.5015 4.6625 13.4201 4.58103C13.2569 4.41768 13.2569 4.15324 13.4201 3.98989L14.9029 2.50682C15.0661 2.34389 15.3299 2.34389 15.4931 2.50682C15.6563 2.66975 15.6563 2.93461 15.4931 3.09796L14.0104 4.58103C13.929 4.66291 13.8221 4.70344 13.7153 4.70344ZM11.9771 3.99449C11.9316 3.99449 11.8848 3.98655 11.8393 3.97067C11.6218 3.89464 11.507 3.65651 11.583 3.43844L11.9879 2.27997C12.0643 2.06231 12.3018 1.94743 12.5197 2.02346C12.7372 2.09949 12.852 2.33762 12.776 2.55569L12.3711 3.71416C12.311 3.8867 12.1495 3.99449 11.9771 3.99449ZM14.5414 6.40667C14.3694 6.40667 14.2082 6.29931 14.1477 6.12802C14.0709 5.91037 14.1853 5.67182 14.4024 5.59495L15.4434 5.2269C15.6613 5.14961 15.8993 5.2645 15.9761 5.48174C16.0529 5.69939 15.9385 5.93794 15.7214 6.01481L14.6804 6.38286C14.634 6.39915 14.5873 6.40667 14.5414 6.40667Z" fill="#32312D"/>
<path fill-rule="evenodd" clip-rule="evenodd" d="M15.6335 11.4526C15.6177 11.7935 15.6037 12.0958 15.7568 12.3349C16.0188 12.7439 16.0713 13.0753 15.7015 13.4455L14.5373 14.6096L13.2762 15.8704C13.1518 15.9947 12.9994 16.0628 12.8365 16.0884C12.8536 16.0884 12.8703 16.0883 12.8864 16.0882C12.9502 16.088 13.0049 16.0878 13.0397 16.0904C13.315 16.111 13.5599 16.196 13.892 16.377C14.3186 16.6094 14.9447 16.6833 15.282 16.2839L16.4322 14.9212L17.4939 13.6629C17.8312 13.2628 17.7509 12.937 17.4553 12.5516C17.2825 12.3263 17.271 12.0239 17.2579 11.6829C17.2511 11.5049 17.2439 11.3164 17.2132 11.1228C17.1032 10.2002 16.6598 9.32311 15.8515 8.64468L13.0983 6.33431C13.0983 6.33431 12.7495 6.04148 12.3761 6.20536L14.4886 8.3065C15.2368 9.05076 15.6045 9.96214 15.6362 10.8908C15.6505 11.0863 15.6418 11.2747 15.6335 11.4526ZM11.3254 7.15945C10.2778 6.27993 9.2456 5.41319 9.2456 5.41319C9.2456 5.41319 9.10376 5.29419 8.90422 5.25037C9.71196 6.05422 10.9927 7.32873 11.6674 7.99977C12.7001 9.02714 12.9504 8.77611 12.9504 8.77611L12.0175 7.84816L11.3254 7.15945ZM10.1259 8.46531L7.83502 6.54218C7.83502 6.54218 7.7141 6.44066 7.53848 6.39052L10.2075 9.04618C10.2095 9.04822 10.2622 9.0011 10.3205 8.94892C10.3929 8.8842 10.474 8.81171 10.4779 8.8156L10.1259 8.46531ZM8.92929 9.77405L7.23847 8.35444C7.23847 8.35444 7.06149 8.20596 6.82479 8.17963L8.97525 10.3196C8.97128 10.3157 9.04701 10.2323 9.11313 10.1596C9.16435 10.1032 9.20979 10.0532 9.20794 10.0513L8.92929 9.77405ZM7.73603 11.0862L7.18446 10.6232C7.18446 10.6232 6.91544 10.3975 6.59717 10.4533L8.01804 11.867C7.99848 11.8475 8.0497 11.7587 8.09798 11.675C8.14108 11.6003 8.18185 11.5297 8.16788 11.5159L7.73603 11.0862ZM12.347 16.0544C12.18 16.0098 12.0196 15.9358 11.8832 15.8457C11.5677 15.6374 11.3307 15.5319 11.0582 15.4882C11.0238 15.4827 10.9692 15.4783 10.9056 15.4731C10.8688 15.4701 10.8289 15.4669 10.7881 15.4631C11.2791 15.7905 11.7837 15.9757 12.347 16.0544Z" fill="#32312D"/>
</svg>
