<svg width="17" height="15" viewBox="0 0 17 15" fill="none" xmlns="http://www.w3.org/2000/svg">
<path d="M14.7567 10.3349C14.5236 9.9711 14.6777 9.46094 14.6361 8.89084C14.6044 7.96219 14.2366 7.05081 13.4885 6.30655L10.9402 3.77196C10.9402 3.77196 10.4381 3.27238 9.93782 3.77478C9.43824 4.27683 9.94064 4.77677 9.94064 4.77677L11.0174 5.84821L11.9503 6.77616C11.9503 6.77616 11.6999 7.02719 10.6673 5.99981C9.63391 4.97209 7.17901 2.52882 7.17901 2.52882C7.17901 2.52882 6.6766 2.02924 6.17667 2.53164C5.67673 3.03369 6.17914 3.53328 6.17914 3.53328L9.47772 6.81565C9.47067 6.8086 9.21189 7.05081 9.20731 7.04622L5.67814 3.53469C5.67814 3.53469 5.17574 3.03475 4.6758 3.53715C4.17622 4.03956 4.67827 4.53914 4.67827 4.53914L8.20779 8.05138C8.21202 8.05562 7.96805 8.31264 7.9751 8.31969L4.93071 5.2901C4.93071 5.2901 4.4283 4.79052 3.92837 5.29292C3.42843 5.79533 3.93083 6.29526 3.93083 6.29526L7.16772 9.51594C7.19734 9.5452 6.98087 9.83007 7.01788 9.86709L4.68532 7.54616C4.68532 7.54616 4.18292 7.04658 3.68298 7.54898C3.18305 8.05138 3.68545 8.55132 3.68545 8.55132L7.48962 12.335C8.12494 12.9672 8.78776 13.2982 9.59583 13.4389C9.76048 13.4675 9.97202 13.4745 10.058 13.4883C10.3306 13.532 10.5675 13.6374 10.883 13.8458C11.2885 14.1134 11.9062 14.2399 12.276 13.8705L13.5371 12.6097L14.7013 11.4455C15.0712 11.0753 15.0186 10.7439 14.7567 10.3349V10.3349Z" fill="#F5D59A"/>
<path fill-rule="evenodd" clip-rule="evenodd" d="M13.4885 6.30657C14.2367 7.05083 14.6044 7.96221 14.6361 8.89086C14.6504 9.08634 14.6416 9.27477 14.6334 9.45267C14.6176 9.7936 14.6035 10.0959 14.7567 10.335C15.0186 10.7439 15.0712 11.0753 14.7013 11.4455L12.276 13.8705C11.9062 14.24 11.2885 14.1134 10.8831 13.8458C10.5675 13.6374 10.3306 13.532 10.0581 13.4883C10.0236 13.4828 9.9691 13.4784 9.9055 13.4732C9.81022 13.4655 9.6946 13.4561 9.59585 13.4389C8.78778 13.2983 8.12496 12.9672 7.48964 12.3351L3.68547 8.55134C3.68547 8.55134 3.18307 8.0514 3.683 7.549C3.88816 7.34283 4.09374 7.3054 4.26484 7.33293C4.51068 7.3725 4.68534 7.54618 4.68534 7.54618L7.01791 9.86711C6.99834 9.84755 7.04956 9.75878 7.09785 9.67509C7.14095 9.6004 7.18171 9.52976 7.16775 9.51596L4.93544 7.29483L3.93085 6.29528C3.93085 6.29528 3.42845 5.79535 3.92839 5.29294C4.13335 5.08697 4.33872 5.04941 4.50972 5.07679C4.75582 5.1162 4.93073 5.29012 4.93073 5.29012L7.97512 8.31971C7.97114 8.31573 8.04688 8.23238 8.113 8.15962C8.16422 8.10326 8.20966 8.05325 8.20781 8.0514L5.18061 5.03902L4.67829 4.53916C4.67829 4.53916 4.17624 4.03958 4.67582 3.53717C5.01121 3.20014 5.3477 3.31419 5.53288 3.42579C5.62373 3.48054 5.67816 3.53471 5.67816 3.53471L5.9292 3.78449L9.20733 7.04624C9.20937 7.04829 9.26207 7.00116 9.32041 6.94898C9.39278 6.88426 9.47384 6.81176 9.47775 6.81567L6.17916 3.5333C6.17916 3.5333 6.05359 3.40844 5.99047 3.22083C5.99046 3.22078 5.99049 3.22088 5.99047 3.22083C5.97985 3.18924 5.97095 3.15571 5.96477 3.12086C5.93424 2.9487 5.96883 2.7404 6.17669 2.53166C6.67662 2.02926 7.17903 2.52884 7.17903 2.52884C7.17903 2.52884 8.25011 3.59484 9.27511 4.61477C9.41539 4.75436 9.5548 4.89308 9.69049 5.02809C9.69051 5.02811 9.69047 5.02807 9.69049 5.02809C10.0643 5.40005 10.4099 5.74387 10.6673 5.99983C10.7018 6.03417 10.7355 6.06708 10.7682 6.09862C10.7683 6.09863 10.7682 6.0986 10.7682 6.09862C11.7164 7.01065 11.9503 6.77618 11.9503 6.77618L10.9173 5.74859L9.94066 4.77679C9.94066 4.77679 9.76583 4.60282 9.72499 4.35707C9.6966 4.18623 9.73296 3.98069 9.93784 3.7748C10.4381 3.2724 10.9402 3.77198 10.9402 3.77198L13.4885 6.30657ZM11.206 3.50467L11.2928 3.41747L13.8411 5.95206C14.6779 6.78453 15.0973 7.81335 15.1355 8.86433C15.151 9.0881 15.14 9.32893 15.1315 9.5143C15.1283 9.58531 15.1254 9.64817 15.1245 9.69882C15.1206 9.92765 15.1462 10.016 15.1777 10.0653C15.3262 10.2971 15.4666 10.5814 15.4659 10.9058C15.4653 11.2548 15.3039 11.5498 15.0551 11.7989L12.6296 14.2241C12.3147 14.5386 11.909 14.6222 11.5554 14.5956C11.207 14.5694 10.8706 14.4366 10.6076 14.2631C10.3268 14.0777 10.1572 14.0106 9.97915 13.982C9.97925 13.982 9.97928 13.982 9.97915 13.982C9.97848 13.9819 9.97449 13.9814 9.96603 13.9804C9.95649 13.9794 9.94432 13.9782 9.92881 13.9769C9.90916 13.9751 9.88987 13.9736 9.86788 13.9718C9.85196 13.9705 9.83463 13.9691 9.81473 13.9674C9.73001 13.9603 9.61653 13.95 9.51041 13.9316C8.60096 13.7733 7.84475 13.3937 7.13697 12.6895L3.33287 8.90585L3.68547 8.55134C3.33283 8.90572 3.33305 8.90602 3.33287 8.90585L3.33207 8.90505L3.3313 8.90428L3.32962 8.90259L3.32569 8.89858L3.31566 8.88808C3.30806 8.88 3.29863 8.86969 3.28782 8.85727C3.26631 8.83257 3.23866 8.79881 3.20863 8.757C3.14998 8.67531 3.07479 8.55253 3.02281 8.39785C2.97013 8.2411 2.93829 8.04184 2.98195 7.82072C3.02633 7.5959 3.14188 7.38394 3.32858 7.19632C3.47664 7.04752 3.64023 6.9434 3.81361 6.88396L3.57819 6.64972L3.93085 6.29528C3.57817 6.64971 3.57837 6.6499 3.57819 6.64972L3.57746 6.64899L3.57669 6.64822L3.57501 6.64653L3.57108 6.64252L3.56104 6.63202C3.55344 6.62394 3.54402 6.61363 3.53321 6.60121C3.51169 6.57651 3.48404 6.54276 3.45402 6.50094C3.39536 6.41925 3.32018 6.29647 3.26819 6.1418C3.21551 5.98504 3.18367 5.78578 3.22733 5.56466C3.27172 5.33985 3.38727 5.12788 3.57396 4.94026C3.73808 4.77533 3.92127 4.66529 4.11573 4.61015C4.07979 4.546 4.04428 4.47072 4.01575 4.38582C3.9631 4.22911 3.93128 4.02992 3.97491 3.80888C4.01926 3.58415 4.13471 3.37223 4.32128 3.18462C4.50797 2.997 4.71949 2.88028 4.94408 2.83479C5.14 2.7951 5.31901 2.81489 5.46653 2.85608C5.46909 2.83855 5.47213 2.82087 5.47565 2.80305C5.52005 2.5783 5.63562 2.36646 5.82227 2.17898M11.206 3.50467C11.2927 3.41743 11.2929 3.41758 11.2928 3.41747L11.2914 3.41608L11.2897 3.41441L11.2856 3.41049L11.2751 3.40051C11.267 3.39295 11.2566 3.38357 11.2441 3.37282C11.2193 3.35143 11.1854 3.32395 11.1435 3.29414C11.0615 3.23591 10.9383 3.16137 10.7834 3.11021C10.6264 3.05835 10.427 3.02759 10.2061 3.07239C9.98162 3.11792 9.77028 3.23447 9.58354 3.422C9.43567 3.5706 9.33234 3.73463 9.2738 3.9081C9.14318 3.77813 9.01392 3.64949 8.88834 3.52453L7.53219 2.17489L7.17903 2.52884C7.53158 2.17429 7.53141 2.17412 7.53123 2.17394L7.53009 2.17282L7.52839 2.17115L7.52436 2.16723L7.51381 2.15725C7.50569 2.1497 7.49533 2.14033 7.48286 2.12958C7.45804 2.1082 7.42414 2.08073 7.38217 2.05093C7.30018 1.99272 7.17702 1.9182 7.02208 1.86705C6.86506 1.81522 6.66567 1.78445 6.44482 1.82925C6.22034 1.87478 6.00891 1.99146 5.82227 2.17898" fill="#32312D"/>
<path d="M0.802059 13.461C0.695196 13.461 0.588332 13.42 0.506932 13.3386C0.343715 13.1752 0.343715 12.9112 0.506932 12.7478L1.98925 11.2652C2.15246 11.1018 2.41628 11.1018 2.5795 11.2652C2.74272 11.4285 2.74272 11.6926 2.5795 11.8559L1.09719 13.339C1.01579 13.4204 0.908923 13.461 0.802059 13.461ZM3.61808 13.8462C3.57258 13.8462 3.52583 13.8386 3.47991 13.8228C3.26242 13.7467 3.14763 13.5086 3.22402 13.2905L3.62935 12.1321C3.70532 11.9144 3.94368 11.7999 4.16116 11.8755C4.37865 11.952 4.49344 12.1901 4.41705 12.4078L4.01172 13.5662C3.95161 13.7384 3.79048 13.8462 3.61808 13.8462ZM0.417601 10.6431C0.245618 10.6431 0.0844879 10.5358 0.0239598 10.3645C-0.0528484 10.1468 0.0611112 9.90828 0.278595 9.83141L1.3201 9.46336C1.53842 9.38816 1.77594 9.50137 1.85274 9.71819C1.92955 9.93585 1.81559 10.1744 1.59811 10.2513L0.556607 10.6193C0.510272 10.6356 0.463519 10.6431 0.417601 10.6431ZM12.7153 2.70344C12.6084 2.70344 12.5015 2.6625 12.4201 2.58103C12.2569 2.41768 12.2569 2.15324 12.4201 1.98989L13.9029 0.506816C14.0661 0.343887 14.3299 0.343887 14.4931 0.506816C14.6563 0.669745 14.6563 0.93461 14.4931 1.09796L13.0104 2.58103C12.929 2.66291 12.8221 2.70344 12.7153 2.70344ZM10.9771 1.99449C10.9316 1.99449 10.8848 1.98655 10.8393 1.97067C10.6218 1.89464 10.507 1.65651 10.583 1.43844L10.9879 0.279968C11.0643 0.0623115 11.3018 -0.0525745 11.5197 0.0234592C11.7372 0.0994928 11.852 0.33762 11.776 0.555695L11.3711 1.71416C11.311 1.8867 11.1495 1.99449 10.9771 1.99449ZM13.5414 4.40667C13.3694 4.40667 13.2082 4.29931 13.1477 4.12802C13.0709 3.91037 13.1853 3.67182 13.4024 3.59495L14.4434 3.2269C14.6613 3.14961 14.8993 3.2645 14.9761 3.48174C15.0529 3.69939 14.9385 3.93794 14.7214 4.01481L13.6804 4.38286C13.634 4.39915 13.5873 4.40667 13.5414 4.40667Z" fill="#32312D"/>
<path fill-rule="evenodd" clip-rule="evenodd" d="M14.6335 9.4526C14.6177 9.79354 14.6037 10.0958 14.7568 10.3349C15.0188 10.7439 15.0713 11.0753 14.7015 11.4455L13.5373 12.6096L12.2762 13.8704C12.1518 13.9947 11.9994 14.0628 11.8365 14.0884C11.8536 14.0884 11.8703 14.0883 11.8864 14.0882C11.9502 14.088 12.0049 14.0878 12.0397 14.0904C12.315 14.111 12.5599 14.196 12.892 14.377C13.3186 14.6094 13.9447 14.6833 14.282 14.2839L15.4322 12.9212L16.4939 11.6629C16.8312 11.2628 16.7509 10.937 16.4553 10.5516C16.2825 10.3263 16.271 10.0239 16.2579 9.68287C16.2511 9.50491 16.2439 9.31642 16.2132 9.12285C16.1032 8.20019 15.6598 7.32311 14.8515 6.64468L12.0983 4.33431C12.0983 4.33431 11.7495 4.04148 11.3761 4.20536L13.4886 6.3065C14.2368 7.05076 14.6045 7.96214 14.6362 8.89079C14.6505 9.08627 14.6418 9.2747 14.6335 9.4526ZM10.3254 5.15945C9.2778 4.27993 8.2456 3.41319 8.2456 3.41319C8.2456 3.41319 8.10376 3.29419 7.90422 3.25037C8.71196 4.05422 9.99271 5.32873 10.6674 5.99977C11.7001 7.02714 11.9504 6.77611 11.9504 6.77611L11.0175 5.84816L10.3254 5.15945ZM9.12586 6.46531L6.83502 4.54218C6.83502 4.54218 6.7141 4.44066 6.53848 4.39052L9.20746 7.04618C9.20951 7.04822 9.2622 7.0011 9.32054 6.94892C9.3929 6.8842 9.47395 6.81171 9.47788 6.8156L9.12586 6.46531ZM7.92929 7.77405L6.23847 6.35444C6.23847 6.35444 6.06149 6.20596 5.82479 6.17963L7.97525 8.31964C7.97128 8.31567 8.04701 8.23232 8.11313 8.15956C8.16435 8.10319 8.20979 8.05318 8.20794 8.05134L7.92929 7.77405ZM6.73603 9.0862L6.18446 8.62316C6.18446 8.62316 5.91544 8.39747 5.59717 8.45326L7.01804 9.86704C6.99848 9.84748 7.0497 9.75872 7.09798 9.67503C7.14108 9.60034 7.18185 9.52969 7.16788 9.51589L6.73603 9.0862ZM11.347 14.0544C11.18 14.0098 11.0196 13.9358 10.8832 13.8457C10.5677 13.6374 10.3307 13.5319 10.0582 13.4882C10.0238 13.4827 9.96923 13.4783 9.90564 13.4731C9.86879 13.4701 9.8289 13.4669 9.78812 13.4631C10.2791 13.7905 10.7837 13.9757 11.347 14.0544Z" fill="#32312D"/>
</svg>
