<svg width="18" height="18" viewBox="0 0 18 18" fill="none" xmlns="http://www.w3.org/2000/svg">
    <path
        d="M9 16.5C13.1421 16.5 16.5 13.1421 16.5 9C16.5 4.85786 13.1421 1.5 9 1.5C4.85786 1.5 1.5 4.85786 1.5 9C1.5 13.1421 4.85786 16.5 9 16.5Z"
        fill="white" />
    <path
        d="M12.225 8.04004H12.06C11.7822 8.07495 11.5184 8.18192 11.2947 8.35033C11.0711 8.51873 10.8953 8.74272 10.785 9.00004V9.00004C10.6887 9.2122 10.6377 9.44207 10.635 9.67504C10.637 9.89442 10.6829 10.1112 10.77 10.3125V10.3125C10.8005 10.3799 10.8356 10.445 10.875 10.5075V10.5075C10.9526 10.6315 11.0459 10.7449 11.1525 10.845C11.2584 10.9444 11.3801 11.0255 11.5125 11.085V11.085C11.6643 11.1677 11.8292 11.2235 12 11.25H12.21H12.405C12.4549 11.2542 12.5051 11.2542 12.555 11.25V11.25C12.6635 11.2264 12.7691 11.1912 12.87 11.145C13.1981 10.9878 13.4627 10.7232 13.62 10.395V10.395C13.62 10.3275 13.6725 10.26 13.695 10.1925C13.7179 10.1296 13.733 10.0641 13.74 9.99754C13.7441 9.98028 13.7441 9.96229 13.74 9.94504C13.7477 9.87525 13.7477 9.80482 13.74 9.73504V9.73504C13.7532 9.52397 13.7243 9.31239 13.6551 9.11256C13.5858 8.91274 13.4776 8.72865 13.3367 8.57098C13.1958 8.4133 13.0249 8.28518 12.8341 8.19404C12.6433 8.10289 12.4362 8.05055 12.225 8.04004V8.04004Z"
        fill="#32312D" />
    <path
        d="M9 0C7.21997 0 5.47991 0.527841 3.99987 1.51677C2.51983 2.50571 1.36628 3.91131 0.685088 5.55585C0.00389957 7.20038 -0.17433 9.00998 0.172936 10.7558C0.520203 12.5016 1.37737 14.1053 2.63604 15.364C3.89471 16.6226 5.49836 17.4798 7.24419 17.8271C8.99002 18.1743 10.7996 17.9961 12.4442 17.3149C14.0887 16.6337 15.4943 15.4802 16.4832 14.0001C17.4722 12.5201 18 10.78 18 9C18 6.61305 17.0518 4.32387 15.364 2.63604C13.6761 0.948211 11.3869 0 9 0V0ZM5.775 11.25C6.07818 11.2503 6.37506 11.1636 6.63035 11C6.88563 10.8365 7.08856 10.603 7.215 10.3275H8.46C8.29949 10.987 7.90283 11.5648 7.34508 11.9516C6.78733 12.3384 6.10716 12.5073 5.43324 12.4265C4.75932 12.3457 4.1384 12.0206 3.68794 11.5129C3.23748 11.0052 2.98872 10.35 2.98872 9.67125C2.98872 8.9925 3.23748 8.33729 3.68794 7.82957C4.1384 7.32185 4.75932 6.99683 5.43324 6.916C6.10716 6.83516 6.78733 7.00413 7.34508 7.39092C7.90283 7.77771 8.29949 8.3555 8.46 9.015H7.2375C7.1225 8.75076 6.93816 8.52255 6.70402 8.35455C6.46988 8.18655 6.19465 8.08501 5.9075 8.0607C5.62035 8.03638 5.33197 8.0902 5.07291 8.21644C4.81385 8.34268 4.59377 8.53664 4.43597 8.77779C4.27818 9.01893 4.18856 9.29826 4.17659 9.58619C4.16463 9.87412 4.23078 10.1599 4.36803 10.4133C4.50528 10.6667 4.70851 10.8783 4.95621 11.0256C5.2039 11.1729 5.48682 11.2504 5.775 11.25ZM14.025 11.76C13.7837 11.9583 13.513 12.1177 13.2225 12.2325C12.9026 12.3596 12.5617 12.4257 12.2175 12.4275C11.6613 12.4261 11.1182 12.259 10.6575 11.9475V12.2325H9.5325V4.245H10.6575V7.3575C11.0538 7.07874 11.5172 6.91048 12 6.87H12.2025C12.7698 6.86955 13.3235 7.04295 13.7892 7.36686C14.2549 7.69076 14.6102 8.14961 14.8071 8.68159C15.004 9.21357 15.0332 9.79313 14.8907 10.3422C14.7482 10.8913 14.4408 11.3835 14.01 11.7525L14.025 11.76Z"
        fill="#32312D" />
</svg>
