<svg width="20" height="20" viewBox="0 0 20 20" fill="none" xmlns="http://www.w3.org/2000/svg">
<path d="M16.3665 9.973C15.4916 8.61463 14.3951 7.59874 13.077 6.92531C13.4281 7.52391 13.6037 8.17144 13.6037 8.86789C13.6037 9.93271 13.2252 10.8436 12.4684 11.6005C11.7115 12.3573 10.8006 12.7358 9.7358 12.7358C8.67097 12.7358 7.76012 12.3573 7.00323 11.6005C6.24634 10.8436 5.8679 9.93271 5.8679 8.86789C5.8679 8.17144 6.04345 7.52391 6.39455 6.92531C5.07647 7.59874 3.98 8.61463 3.10511 9.973C3.87064 11.1529 4.83041 12.0926 5.98445 12.7919C7.13849 13.4912 8.38894 13.8409 9.7358 13.8409C11.0827 13.8409 12.3331 13.4912 13.4871 12.7919C14.6412 12.0926 15.601 11.1529 16.3665 9.973ZM10.1502 6.65766C10.1502 6.54255 10.1099 6.4447 10.0293 6.36412C9.94876 6.28354 9.85091 6.24324 9.7358 6.24324C9.01632 6.24324 8.39901 6.50082 7.88387 7.01596C7.36872 7.5311 7.11115 8.14841 7.11115 8.86789C7.11115 8.98301 7.15144 9.08085 7.23202 9.16144C7.3126 9.24202 7.41045 9.28231 7.52557 9.28231C7.64068 9.28231 7.73853 9.24202 7.81911 9.16144C7.89969 9.08085 7.93999 8.98301 7.93999 8.86789C7.93999 8.37289 8.11554 7.94984 8.46664 7.59874C8.81775 7.24763 9.2408 7.07208 9.7358 7.07208C9.85091 7.07208 9.94876 7.03179 10.0293 6.95121C10.1099 6.87063 10.1502 6.77278 10.1502 6.65766ZM17.4716 9.973C17.4716 10.1687 17.414 10.3673 17.2989 10.5687C16.4931 11.8926 15.4096 12.9531 14.0483 13.7502C12.6871 14.5474 11.2496 14.946 9.7358 14.946C8.22202 14.946 6.78451 14.546 5.42326 13.7459C4.06202 12.9459 2.97849 11.8868 2.17267 10.5687C2.05756 10.3673 2 10.1687 2 9.973C2 9.77731 2.05756 9.57873 2.17267 9.37728C2.97849 8.0592 4.06202 7.00013 5.42326 6.20008C6.78451 5.40002 8.22202 4.99999 9.7358 4.99999C11.2496 4.99999 12.6871 5.40002 14.0483 6.20008C15.4096 7.00013 16.4931 8.0592 17.2989 9.37728C17.414 9.57873 17.4716 9.77731 17.4716 9.973Z" fill="#32312D"/>
</svg>
