<svg width="11" height="11" viewBox="0 0 11 11" fill="none" xmlns="http://www.w3.org/2000/svg">
<g clip-path="url(#clip0)">
<path d="M5.5 0.229156C2.46125 0.229156 0 2.64916 0 5.63382C0 8.0222 1.57575 10.0476 3.76063 10.7617C4.03563 10.8125 4.13646 10.6452 4.13646 10.5018C4.13646 10.3734 4.13188 10.0334 4.12958 9.58283C2.59967 9.9087 2.277 8.85774 2.277 8.85774C2.02675 8.23395 1.66512 8.06712 1.66512 8.06712C1.16692 7.73207 1.70363 7.73895 1.70363 7.73895C2.25592 7.77653 2.54604 8.29582 2.54604 8.29582C3.03646 9.1222 3.8335 8.88341 4.14792 8.74545C4.19742 8.39574 4.33904 8.15787 4.49625 8.02266C3.27479 7.88745 1.991 7.4227 1.991 5.35195C1.991 4.76207 2.20413 4.27991 2.55704 3.90178C2.49517 3.7652 2.30954 3.21566 2.60517 2.47132C2.60517 2.47132 3.06579 2.32649 4.11767 3.02545C4.55767 2.90537 5.02517 2.84578 5.49267 2.84303C5.96017 2.84578 6.42767 2.90537 6.86767 3.02545C7.91267 2.32649 8.37329 2.47132 8.37329 2.47132C8.66892 3.21566 8.48329 3.7652 8.42829 3.90178C8.77892 4.27991 8.99204 4.76207 8.99204 5.35195C8.99204 7.4282 7.70642 7.88516 6.48267 8.01807C6.67517 8.18032 6.85392 8.5117 6.85392 9.01816C6.85392 9.74141 6.84704 10.3226 6.84704 10.4981C6.84704 10.6397 6.94329 10.8089 7.22517 10.7548C9.42563 10.0453 11 8.01853 11 5.63382C11 2.64916 8.53738 0.229156 5.5 0.229156V0.229156Z" fill="white"/>
</g>
<defs>
<clipPath id="clip0">
<rect width="11" height="11"/>
</clipPath>
</defs>
</svg>
