<svg width="20" height="20" viewBox="0 0 20 20" fill="none" xmlns="http://www.w3.org/2000/svg">
<path fill-rule="evenodd" clip-rule="evenodd" d="M10.5 2C6.35635 2 3 5.44079 3 9.68867C3 13.087 5.15009 15.9661 8.12891 16.9856C8.50184 17.0564 8.63996 16.8204 8.63996 16.6127C8.63996 16.4286 8.63536 15.9472 8.63075 15.3053C6.54512 15.7679 6.10313 14.2764 6.10313 14.2764C5.76243 13.3891 5.2698 13.1483 5.2698 13.1483C4.5884 12.6716 5.32044 12.6811 5.32044 12.6811C6.0709 12.7377 6.47145 13.474 6.47145 13.474C7.13904 14.6493 8.2256 14.3094 8.65378 14.1112C8.72284 13.6156 8.91621 13.2758 9.12799 13.0823C7.46593 12.8935 5.71639 12.2327 5.71639 9.28748C5.71639 8.44735 6.00645 7.76296 6.48987 7.2249C6.4116 7.02666 6.15378 6.24789 6.55893 5.19063C6.55893 5.19063 7.18969 4.98296 8.62155 5.97885C9.22007 5.80894 9.86004 5.72398 10.5 5.71926C11.1354 5.72398 11.7799 5.80894 12.3785 5.97885C13.8103 4.98296 14.4411 5.19063 14.4411 5.19063C14.8508 6.24789 14.593 7.03138 14.5147 7.2249C14.9936 7.76296 15.2836 8.44735 15.2836 9.28748C15.2836 12.2421 13.5295 12.8887 11.8582 13.0823C12.1252 13.3183 12.3692 13.7902 12.3692 14.5077C12.3692 15.5366 12.36 16.3626 12.36 16.6174C12.36 16.8251 12.4936 17.0611 12.8757 16.9856C15.8545 15.9661 18 13.087 18 9.69339C18 5.44079 14.6436 2 10.5 2Z" fill="#32312D"/>
</svg>
