<svg width="14" height="14" viewBox="0 0 14 14" fill="none" xmlns="http://www.w3.org/2000/svg">
<path d="M3.3753 1.56122C3.3753 2.42674 2.72427 3.12055 1.67758 3.12055H1.65808C0.650402 3.12118 0 2.42611 0 1.56122C0 0.674934 0.67116 4.38895e-07 1.69708 4.38895e-07C2.72427 -0.000628577 3.35643 0.674934 3.3753 1.56122ZM0.176124 13.3823H3.17779V4.35405H0.176124V13.3823ZM10.5448 4.1427C8.95278 4.1427 8.2401 5.01703 7.83942 5.63346V5.6624H7.81992C7.82747 5.65359 7.83439 5.64353 7.83942 5.63346V4.35468H4.83839C4.87739 5.2007 4.83839 13.3829 4.83839 13.3829H7.83942V8.34075C7.83942 8.06901 7.85766 7.80294 7.93818 7.60857C8.15582 7.07139 8.65022 6.50968 9.47675 6.50968C10.5643 6.50968 10.999 7.33935 10.999 8.5521V13.3829H14V8.20677C14.0006 5.43155 12.5187 4.1427 10.5448 4.1427Z" fill="#32312D"/>
</svg>
