<svg width="56" height="53" viewBox="0 0 56 53" fill="none" xmlns="http://www.w3.org/2000/svg">
<path d="M7 7H55V52H7V7Z" fill="#F5D59A" stroke="#32312D" stroke-width="2"/>
<path d="M1 1H49V46H1V1Z" fill="white" stroke="#32312D" stroke-width="2"/>
<path d="M8 25H43V27H8V25Z" fill="#32312D"/>
<path d="M8.34033 19.5474L9.20361 19.4229L12.8809 8.91406H15.3628L19.0151 19.4229L19.8784 19.5474V21H15.7612V19.5474L16.5996 19.3979L16.0684 17.7378H12.1504L11.6191 19.3979L12.4575 19.5474V21H8.34033V19.5474ZM12.7231 15.9531H15.4956L14.1343 11.6948H14.0845L12.7231 15.9531ZM28.4863 15.6875H24.394V19.1406H28.2954L28.4033 17.6963H30.2461V21H20.6836V19.5474L21.9702 19.2983V10.624L20.6836 10.375V8.91406H21.9702H30.2295V12.2261H28.3701L28.2622 10.7817H24.394V13.8198H28.4863V15.6875ZM41.4438 12.9897H39.6426L39.3936 11.3794C39.1556 11.1414 38.854 10.9533 38.4888 10.8149C38.1291 10.6766 37.703 10.6074 37.2104 10.6074C36.159 10.6074 35.3483 10.9893 34.7783 11.7529C34.2139 12.5166 33.9316 13.5127 33.9316 14.7412V15.1646C33.9316 16.3931 34.2139 17.3919 34.7783 18.1611C35.3428 18.9303 36.1396 19.3149 37.1689 19.3149C37.6449 19.3149 38.0793 19.2458 38.4722 19.1074C38.8706 18.9691 39.1777 18.7809 39.3936 18.543L39.6426 16.9326H41.4438V19.3232C40.9569 19.8877 40.3343 20.3387 39.5762 20.6763C38.8236 21.0083 37.9797 21.1743 37.0444 21.1743C35.423 21.1743 34.0949 20.6126 33.0601 19.4893C32.0252 18.3659 31.5078 16.9243 31.5078 15.1646V14.7578C31.5078 13.0036 32.0225 11.562 33.0518 10.4331C34.0811 9.3042 35.4119 8.73975 37.0444 8.73975C37.9797 8.73975 38.8236 8.9113 39.5762 9.25439C40.3288 9.59196 40.9513 10.0402 41.4438 10.5991V12.9897Z" fill="#32312D"/>
<path d="M16.4043 32.6914L15.7656 32.7734L14.4414 38H13.0117L11.834 34.2266H11.7988L10.6211 38H9.19727L7.86719 32.7734L7.22852 32.6914V31.6602H10.0996V32.6914L9.42578 32.8203L10.0234 35.7207H10.0586L11.2422 31.6602H12.3906L13.5859 35.7324H13.6211L14.2129 32.8262L13.5332 32.6914V31.6602H16.4043V32.6914ZM17.3502 34.7715C17.3502 33.8262 17.6139 33.0527 18.1412 32.4512C18.6725 31.8457 19.4049 31.543 20.3385 31.543C21.276 31.543 22.0084 31.8438 22.5358 32.4453C23.067 33.0469 23.3327 33.8223 23.3327 34.7715V34.8945C23.3327 35.8477 23.067 36.625 22.5358 37.2266C22.0084 37.8242 21.2799 38.123 20.3502 38.123C19.4088 38.123 18.6725 37.8242 18.1412 37.2266C17.6139 36.625 17.3502 35.8477 17.3502 34.8945V34.7715ZM19.0612 34.8945C19.0612 35.4727 19.1627 35.9375 19.3659 36.2891C19.569 36.6367 19.8971 36.8105 20.3502 36.8105C20.7916 36.8105 21.1139 36.6348 21.317 36.2832C21.5241 35.9316 21.6276 35.4688 21.6276 34.8945V34.7715C21.6276 34.209 21.5241 33.75 21.317 33.3945C21.11 33.0391 20.7838 32.8613 20.3385 32.8613C19.8932 32.8613 19.569 33.0391 19.3659 33.3945C19.1627 33.75 19.0612 34.209 19.0612 34.7715V34.8945ZM24.5657 36.9746L25.386 36.7988V32.8672L24.4778 32.6914V31.6602H26.9798L27.0559 32.5859C27.2044 32.2578 27.3958 32.002 27.6302 31.8184C27.8645 31.6348 28.136 31.543 28.4446 31.543C28.5345 31.543 28.6282 31.5508 28.7259 31.5664C28.8274 31.5781 28.9114 31.5938 28.9778 31.6133L28.7962 33.1719L28.093 33.1543C27.843 33.1543 27.636 33.2031 27.472 33.3008C27.3079 33.3984 27.1829 33.5371 27.097 33.7168V36.7988L27.9173 36.9746V38H24.5657V36.9746ZM29.373 29.8906V28.8594H31.9921V34.1562H32.373L33.3573 32.7676L32.8007 32.6914V31.6602H35.9179V32.6914L35.1679 32.8613L34.0253 34.4316L35.6249 36.8398L36.2753 36.9746V38H33.3456V36.9746L33.6972 36.916L32.7245 35.3457H31.9921V36.7988L32.7304 36.9746V38H29.4609V36.9746L30.287 36.7988V30.0664L29.373 29.8906ZM42.4127 33.8398H41.2642L41.0826 33.0488C40.9654 32.9551 40.817 32.877 40.6373 32.8145C40.4615 32.752 40.2662 32.7207 40.0513 32.7207C39.7505 32.7207 39.5123 32.7891 39.3365 32.9258C39.1607 33.0586 39.0728 33.2266 39.0728 33.4297C39.0728 33.6211 39.1568 33.7812 39.3248 33.9102C39.4927 34.0352 39.8287 34.1465 40.3326 34.2441C41.1177 34.4004 41.6998 34.6309 42.0787 34.9355C42.4576 35.2363 42.647 35.6523 42.647 36.1836C42.647 36.7539 42.4009 37.2207 41.9088 37.584C41.4205 37.9434 40.7759 38.123 39.9752 38.123C39.4869 38.123 39.0377 38.0527 38.6275 37.9121C38.2213 37.7676 37.8599 37.5625 37.5435 37.2969L37.5259 35.873H38.7213L38.9556 36.6992C39.0572 36.7852 39.1959 36.8496 39.3716 36.8926C39.5474 36.9316 39.731 36.9512 39.9224 36.9512C40.2701 36.9512 40.5338 36.8887 40.7134 36.7637C40.897 36.6387 40.9888 36.4688 40.9888 36.2539C40.9888 36.0664 40.897 35.9043 40.7134 35.7676C40.5298 35.6309 40.192 35.5098 39.6998 35.4043C38.9537 35.252 38.3892 35.0273 38.0064 34.7305C37.6275 34.4297 37.438 34.0215 37.438 33.5059C37.438 32.9746 37.6568 32.5176 38.0943 32.1348C38.5318 31.748 39.1548 31.5547 39.9634 31.5547C40.4556 31.5547 40.9205 31.6211 41.358 31.7539C41.7994 31.8867 42.1451 32.0566 42.3951 32.2637L42.4127 33.8398Z" fill="#32312D"/>
</svg>
