<svg width="152" height="143" viewBox="0 0 152 143" fill="none" xmlns="http://www.w3.org/2000/svg">
<path d="M17.1887 17.1887H150.094V142H17.1887V17.1887Z" fill="#32312D" stroke="#32312D" stroke-width="2"/>
<path d="M2.5 2.5H132.406V124.311H2.5V2.5Z" fill="white" stroke="#32312D" stroke-width="5"/>
<path d="M21.585 67.4528H116.019V72.849H21.585V67.4528Z" fill="#32312D"/>
<path d="M22.502 52.741L24.8312 52.405L34.7528 24.0511H41.4493L51.3038 52.405L53.633 52.741V56.6604H42.5244V52.741L44.7864 52.3378L43.353 47.8586H32.7819L31.3485 52.3378L33.6106 52.741V56.6604H22.502V52.741ZM34.3273 43.0433H41.8077L38.1347 31.5539H38.0003L34.3273 43.0433Z" fill="#32312D"/>
<path d="M76.8581 42.3266H65.8167V51.6436H76.343L76.6342 47.7466H81.6062V56.6604H55.8055V52.741L59.2769 52.0691V28.6648L55.8055 27.9929V24.0511H59.2769H81.5614V32.9873H76.5446L76.2534 29.0903H65.8167V37.2874H76.8581V42.3266Z" fill="#32312D"/>
<path d="M111.819 35.0478H106.959L106.287 30.7029C105.645 30.0608 104.831 29.5532 103.846 29.1799C102.875 28.8066 101.726 28.62 100.397 28.62C97.5599 28.62 95.3725 29.6502 93.8346 31.7107C92.3117 33.7712 91.5502 36.4588 91.5502 39.7734V40.9157C91.5502 44.2303 92.3117 46.9254 93.8346 49.0008C95.3576 51.0762 97.5077 52.1139 100.285 52.1139C101.569 52.1139 102.741 51.9272 103.801 51.554C104.876 51.1807 105.705 50.673 106.287 50.031L106.959 45.6861H111.819V52.1363C110.505 53.6592 108.825 54.8761 106.78 55.7869C104.749 56.6828 102.472 57.1307 99.9489 57.1307C95.5741 57.1307 91.9907 55.6152 89.1986 52.5842C86.4065 49.5532 85.0104 45.6637 85.0104 40.9157V39.8182C85.0104 35.0851 86.399 31.1956 89.1762 28.1497C91.9533 25.1038 95.5442 23.5808 99.9489 23.5808C102.472 23.5808 104.749 24.0437 106.78 24.9694C108.81 25.8802 110.49 27.0896 111.819 28.5976V35.0478Z" fill="#32312D"/>
<path d="M44.2607 88.2051L42.5375 88.4264L38.9646 102.528H35.1072L31.9295 92.3471H31.8346L28.657 102.528H24.8153L21.2266 88.4264L19.5034 88.2051V85.4227H27.25V88.2051L25.4319 88.5529L27.0444 96.3785H27.1393L30.3328 85.4227H33.4314L36.6565 96.4101H36.7513L38.3481 88.5687L36.5142 88.2051V85.4227H44.2607V88.2051Z" fill="#32312D"/>
<path d="M46.813 93.8174C46.813 91.2668 47.5244 89.18 48.9472 87.5569C50.3806 85.9233 52.3567 85.1065 54.8757 85.1065C57.4052 85.1065 59.3813 85.918 60.8042 87.5411C62.2375 89.1642 62.9542 91.2563 62.9542 93.8174V94.1494C62.9542 96.721 62.2375 98.8184 60.8042 100.441C59.3813 102.054 57.4157 102.86 54.9073 102.86C52.3673 102.86 50.3806 102.054 48.9472 100.441C47.5244 98.8184 46.813 96.721 46.813 94.1494V93.8174ZM51.4293 94.1494C51.4293 95.7092 51.7033 96.9634 52.2513 97.912C52.7994 98.85 53.6847 99.319 54.9073 99.319C56.0983 99.319 56.9678 98.8447 57.5158 97.8962C58.0744 96.9476 58.3537 95.6987 58.3537 94.1494V93.8174C58.3537 92.2997 58.0744 91.0613 57.5158 90.1022C56.9572 89.1431 56.0772 88.6636 54.8757 88.6636C53.6742 88.6636 52.7994 89.1431 52.2513 90.1022C51.7033 91.0613 51.4293 92.2997 51.4293 93.8174V94.1494Z" fill="#32312D"/>
<path d="M66.2811 99.7617L68.4944 99.2874V88.6794L66.044 88.2051V85.4227H72.7945L73 87.9205C73.4005 87.0352 73.917 86.3449 74.5494 85.8495C75.1817 85.3542 75.9142 85.1065 76.7468 85.1065C76.9892 85.1065 77.2422 85.1276 77.5057 85.1697C77.7797 85.2013 78.0063 85.2435 78.1855 85.2962L77.6954 89.5015L75.7983 89.454C75.1238 89.454 74.5652 89.5858 74.1225 89.8493C73.6798 90.1127 73.3426 90.4869 73.1107 90.9717V99.2874L75.324 99.7617V102.528H66.2811V99.7617Z" fill="#32312D"/>
<path d="M79.2517 80.6483V77.8658H86.3184V92.1574H87.346L90.002 88.4106L88.5001 88.2051V85.4227H96.9106V88.2051L94.887 88.6636L91.8042 92.9004L96.1201 99.3981L97.875 99.7617V102.528H89.9703V99.7617L90.9189 99.6036L88.2946 95.3667H86.3184V99.2874L88.3104 99.7617V102.528H79.4888V99.7617L81.7179 99.2874V81.1226L79.2517 80.6483Z" fill="#32312D"/>
<path d="M114.434 91.3037H111.336L110.846 89.1695C110.529 88.9165 110.129 88.7057 109.644 88.5371C109.17 88.3685 108.643 88.2841 108.063 88.2841C107.252 88.2841 106.609 88.4686 106.134 88.8375C105.66 89.1958 105.423 89.649 105.423 90.1971C105.423 90.7135 105.65 91.1456 106.103 91.4934C106.556 91.8307 107.462 92.1311 108.822 92.3946C110.94 92.8161 112.511 93.438 113.533 94.26C114.555 95.0716 115.067 96.194 115.067 97.6274C115.067 99.1662 114.403 100.426 113.075 101.406C111.757 102.375 110.018 102.86 107.858 102.86C106.54 102.86 105.328 102.671 104.221 102.291C103.125 101.901 102.15 101.348 101.297 100.631L101.249 96.7895H104.474L105.107 99.0186C105.381 99.2505 105.755 99.4244 106.229 99.5403C106.703 99.6457 107.199 99.6984 107.715 99.6984C108.653 99.6984 109.365 99.5298 109.85 99.1925C110.345 98.8553 110.593 98.3968 110.593 97.8171C110.593 97.3112 110.345 96.8738 109.85 96.505C109.354 96.1361 108.443 95.8094 107.115 95.5248C105.101 95.1137 103.579 94.5077 102.546 93.7067C101.523 92.8952 101.012 91.7938 101.012 90.4026C101.012 88.9692 101.602 87.7361 102.783 86.7032C103.963 85.6598 105.644 85.1381 107.826 85.1381C109.154 85.1381 110.408 85.3173 111.589 85.6756C112.78 86.034 113.712 86.4924 114.387 87.051L114.434 91.3037Z" fill="#32312D"/>
</svg>
