<svg width="15" height="15" viewBox="0 0 15 15" fill="none" xmlns="http://www.w3.org/2000/svg">
<mask id="path-1-inside-1" fill="white">
<path fill-rule="evenodd" clip-rule="evenodd" d="M7.5 15C11.6421 15 15 11.6421 15 7.5C15 3.35786 11.6421 0 7.5 0C3.35786 0 0 3.35786 0 7.5C0 11.6421 3.35786 15 7.5 15ZM8.66699 8.41699C8.87533 8.62207 8.97949 8.87109 8.97949 9.16406C8.97949 9.51888 8.8623 9.7972 8.62793 9.99902C8.39355 10.1976 8.06641 10.2969 7.64648 10.2969C7.27865 10.2969 6.96777 10.1911 6.71387 9.97949C6.46322 9.76465 6.33789 9.40658 6.33789 8.90527H5.41016L5.40039 8.92969C5.38737 9.60677 5.5599 10.1211 5.91797 10.4727C6.27604 10.821 6.73503 11.0244 7.29492 11.083V12.0156H8.05664V11.083C8.64258 11.0212 9.10319 10.8242 9.43848 10.4922C9.77376 10.1602 9.94141 9.71419 9.94141 9.1543C9.94141 8.60417 9.78027 8.1696 9.45801 7.85059C9.13574 7.52832 8.64258 7.25977 7.97852 7.04492C7.46419 6.86914 7.10775 6.68359 6.90918 6.48828C6.71061 6.29297 6.61133 6.03744 6.61133 5.72168C6.61133 5.37337 6.70736 5.09994 6.89941 4.90137C7.09147 4.69954 7.37956 4.59863 7.76367 4.59863C8.12825 4.59863 8.41146 4.73535 8.61328 5.00879C8.81836 5.28223 8.9209 5.6403 8.9209 6.08301H9.87793C9.87793 5.42871 9.72656 4.90788 9.42383 4.52051C9.12435 4.12988 8.7028 3.89551 8.15918 3.81738V2.7334H7.3877V3.8125C6.84733 3.88086 6.42253 4.08431 6.11328 4.42285C5.80404 4.76139 5.64941 5.19922 5.64941 5.73633C5.64941 6.28971 5.81706 6.73242 6.15234 7.06445C6.48763 7.39648 6.98405 7.66178 7.6416 7.86035C8.12012 8.02311 8.46191 8.20866 8.66699 8.41699Z"/>
</mask>
<path fill-rule="evenodd" clip-rule="evenodd" d="M7.5 15C11.6421 15 15 11.6421 15 7.5C15 3.35786 11.6421 0 7.5 0C3.35786 0 0 3.35786 0 7.5C0 11.6421 3.35786 15 7.5 15ZM8.66699 8.41699C8.87533 8.62207 8.97949 8.87109 8.97949 9.16406C8.97949 9.51888 8.8623 9.7972 8.62793 9.99902C8.39355 10.1976 8.06641 10.2969 7.64648 10.2969C7.27865 10.2969 6.96777 10.1911 6.71387 9.97949C6.46322 9.76465 6.33789 9.40658 6.33789 8.90527H5.41016L5.40039 8.92969C5.38737 9.60677 5.5599 10.1211 5.91797 10.4727C6.27604 10.821 6.73503 11.0244 7.29492 11.083V12.0156H8.05664V11.083C8.64258 11.0212 9.10319 10.8242 9.43848 10.4922C9.77376 10.1602 9.94141 9.71419 9.94141 9.1543C9.94141 8.60417 9.78027 8.1696 9.45801 7.85059C9.13574 7.52832 8.64258 7.25977 7.97852 7.04492C7.46419 6.86914 7.10775 6.68359 6.90918 6.48828C6.71061 6.29297 6.61133 6.03744 6.61133 5.72168C6.61133 5.37337 6.70736 5.09994 6.89941 4.90137C7.09147 4.69954 7.37956 4.59863 7.76367 4.59863C8.12825 4.59863 8.41146 4.73535 8.61328 5.00879C8.81836 5.28223 8.9209 5.6403 8.9209 6.08301H9.87793C9.87793 5.42871 9.72656 4.90788 9.42383 4.52051C9.12435 4.12988 8.7028 3.89551 8.15918 3.81738V2.7334H7.3877V3.8125C6.84733 3.88086 6.42253 4.08431 6.11328 4.42285C5.80404 4.76139 5.64941 5.19922 5.64941 5.73633C5.64941 6.28971 5.81706 6.73242 6.15234 7.06445C6.48763 7.39648 6.98405 7.66178 7.6416 7.86035C8.12012 8.02311 8.46191 8.20866 8.66699 8.41699Z" fill="#32312D"/>
<path d="M8.66699 8.41699L7.95434 9.11851L7.95986 9.12412L7.96547 9.12964L8.66699 8.41699ZM8.62793 9.99902L9.27437 10.762L9.28045 10.7568L8.62793 9.99902ZM6.71387 9.97949L6.06301 10.7388L6.07368 10.7477L6.71387 9.97949ZM6.33789 8.90527H7.33789V7.90527H6.33789V8.90527ZM5.41016 8.90527V7.90527H4.73312L4.48168 8.53388L5.41016 8.90527ZM5.40039 8.92969L4.47191 8.5583L4.40409 8.72786L4.40058 8.91046L5.40039 8.92969ZM5.91797 10.4727L5.21737 11.1862L5.2207 11.1895L5.91797 10.4727ZM7.29492 11.083H8.29492V10.1822L7.399 10.0884L7.29492 11.083ZM7.29492 12.0156H6.29492V13.0156H7.29492V12.0156ZM8.05664 12.0156V13.0156H9.05664V12.0156H8.05664ZM8.05664 11.083L7.95167 10.0885L7.05664 10.183V11.083H8.05664ZM9.45801 7.85059L8.75089 8.5577L8.7545 8.56127L9.45801 7.85059ZM7.97852 7.04492L7.65511 7.99118L7.66288 7.99384L7.6707 7.99637L7.97852 7.04492ZM6.89941 4.90137L7.61823 5.59661L7.62383 5.59073L6.89941 4.90137ZM8.61328 5.00879L7.80868 5.60266L7.81328 5.60879L8.61328 5.00879ZM8.9209 6.08301H7.9209V7.08301H8.9209V6.08301ZM9.87793 6.08301V7.08301H10.8779V6.08301H9.87793ZM9.42383 4.52051L8.63019 5.12897L8.6359 5.13628L9.42383 4.52051ZM8.15918 3.81738H7.15918V4.68394L8.01693 4.80721L8.15918 3.81738ZM8.15918 2.7334H9.15918V1.7334H8.15918V2.7334ZM7.3877 2.7334V1.7334H6.3877V2.7334H7.3877ZM7.3877 3.8125L7.5132 4.80459L8.3877 4.69396V3.8125H7.3877ZM7.6416 7.86035L7.96362 6.91362L7.94725 6.90805L7.93069 6.90305L7.6416 7.86035ZM14 7.5C14 11.0899 11.0899 14 7.5 14V16C12.1944 16 16 12.1944 16 7.5H14ZM7.5 1C11.0899 1 14 3.91015 14 7.5H16C16 2.80558 12.1944 -1 7.5 -1V1ZM1 7.5C1 3.91015 3.91015 1 7.5 1V-1C2.80558 -1 -1 2.80558 -1 7.5H1ZM7.5 14C3.91015 14 1 11.0899 1 7.5H-1C-1 12.1944 2.80558 16 7.5 16V14ZM9.97949 9.16406C9.97949 8.6038 9.76826 8.09785 9.36851 7.70434L7.96547 9.12964C7.97499 9.13901 7.979 9.1446 7.97993 9.14595C7.98075 9.14714 7.97993 9.14612 7.97883 9.14347C7.97772 9.14082 7.97761 9.13965 7.97793 9.14131C7.97829 9.14317 7.97949 9.15029 7.97949 9.16406H9.97949ZM9.28045 10.7568C9.76916 10.336 9.97949 9.76235 9.97949 9.16406H7.97949C7.97949 9.23117 7.96861 9.25408 7.96997 9.25086C7.97045 9.2497 7.97213 9.24633 7.9749 9.24254C7.97762 9.23883 7.97865 9.23846 7.97541 9.24126L9.28045 10.7568ZM7.64648 11.2969C8.21629 11.2969 8.80261 11.1617 9.27435 10.762L7.98151 9.23604C7.9797 9.23757 7.96409 9.25103 7.91638 9.26551C7.86556 9.28093 7.77959 9.29688 7.64648 9.29688V11.2969ZM6.07368 10.7477C6.52782 11.1262 7.07288 11.2969 7.64648 11.2969V9.29688C7.48441 9.29688 7.40773 9.256 7.35405 9.21127L6.07368 10.7477ZM5.33789 8.90527C5.33789 9.54594 5.49652 10.2531 6.06308 10.7387L7.36466 9.22024C7.39199 9.24366 7.38901 9.25737 7.37574 9.21945C7.36002 9.17454 7.33789 9.07745 7.33789 8.90527H5.33789ZM5.41016 9.90527H6.33789V7.90527H5.41016V9.90527ZM6.32887 9.30108L6.33863 9.27666L4.48168 8.53388L4.47191 8.5583L6.32887 9.30108ZM6.61856 9.75909C6.51813 9.66049 6.39055 9.45075 6.40021 8.94891L4.40058 8.91046C4.38418 9.76279 4.60167 10.5817 5.21738 11.1862L6.61856 9.75909ZM7.399 10.0884C7.03251 10.0501 6.79207 9.92785 6.61523 9.75584L5.2207 11.1895C5.76002 11.7141 6.43754 11.9987 7.19084 12.0776L7.399 10.0884ZM8.29492 12.0156V11.083H6.29492V12.0156H8.29492ZM8.05664 11.0156H7.29492V13.0156H8.05664V11.0156ZM7.05664 11.083V12.0156H9.05664V11.083H7.05664ZM8.73483 9.78164C8.59784 9.9173 8.36911 10.0445 7.95167 10.0885L8.16161 12.0775C8.91604 11.9978 9.60854 11.7311 10.1421 11.2027L8.73483 9.78164ZM8.94141 9.1543C8.94141 9.50085 8.84552 9.67202 8.73483 9.78164L10.1421 11.2027C10.702 10.6483 10.9414 9.92754 10.9414 9.1543H8.94141ZM8.7545 8.56127C8.84779 8.65362 8.94141 8.81034 8.94141 9.1543H10.9414C10.9414 8.398 10.7128 7.68558 10.1615 7.1399L8.7545 8.56127ZM7.6707 7.99637C8.25698 8.18605 8.58434 8.39113 8.7509 8.55769L10.1651 7.14348C9.68715 6.66551 9.02818 6.33349 8.28634 6.09348L7.6707 7.99637ZM6.20794 7.20121C6.57326 7.56054 7.10893 7.80451 7.65511 7.99118L8.30192 6.09866C8.07691 6.02176 7.90843 5.95003 7.78717 5.88691C7.72734 5.85576 7.68384 5.82921 7.65352 5.8084C7.63859 5.79816 7.62784 5.78998 7.62058 5.7841C7.61331 5.7782 7.61025 5.77519 7.61042 5.77535L6.20794 7.20121ZM5.61133 5.72168C5.61133 6.26639 5.79205 6.79213 6.20794 7.20121L7.61042 5.77535C7.60914 5.7741 7.61069 5.77545 7.61323 5.77929C7.61579 5.78316 7.61734 5.78653 7.61791 5.78799C7.6194 5.79182 7.61133 5.77424 7.61133 5.72168H5.61133ZM6.18062 4.20614C5.76427 4.63661 5.61133 5.18484 5.61133 5.72168H7.61133C7.61133 5.63827 7.62292 5.59794 7.62686 5.58672C7.62948 5.57925 7.62736 5.58713 7.61821 5.59659L6.18062 4.20614ZM7.76367 3.59863C7.21241 3.59863 6.61852 3.74593 6.175 4.212L7.62383 5.59073C7.61381 5.60126 7.60339 5.60941 7.59481 5.61482C7.58654 5.62003 7.58383 5.62029 7.59011 5.61809C7.6045 5.61305 7.65637 5.59863 7.76367 5.59863V3.59863ZM9.41785 4.41494C9.01207 3.86516 8.41878 3.59863 7.76367 3.59863V5.59863C7.79233 5.59863 7.80872 5.60131 7.81534 5.60271C7.82152 5.60402 7.82034 5.60442 7.81476 5.60172C7.809 5.59894 7.80395 5.59547 7.80094 5.59293C7.79821 5.59061 7.80122 5.59249 7.80871 5.60264L9.41785 4.41494ZM9.9209 6.08301C9.9209 5.48801 9.78198 4.90039 9.41328 4.40879L7.81328 5.60879C7.85474 5.66406 7.9209 5.79259 7.9209 6.08301H9.9209ZM9.87793 5.08301H8.9209V7.08301H9.87793V5.08301ZM8.6359 5.13628C8.76182 5.2974 8.87793 5.57814 8.87793 6.08301H10.8779C10.8779 5.27928 10.6913 4.51835 10.2118 3.90474L8.6359 5.13628ZM8.01693 4.80721C8.33459 4.85287 8.5087 4.97043 8.63022 5.12894L10.2174 3.91208C9.74 3.28933 9.07101 2.93815 8.30143 2.82755L8.01693 4.80721ZM7.15918 2.7334V3.81738H9.15918V2.7334H7.15918ZM7.3877 3.7334H8.15918V1.7334H7.3877V3.7334ZM8.3877 3.8125V2.7334H6.3877V3.8125H8.3877ZM6.85161 5.09729C6.97182 4.9657 7.16195 4.84903 7.5132 4.80459L7.26219 2.82041C6.53272 2.91269 5.87323 3.20292 5.37495 3.74841L6.85161 5.09729ZM6.64941 5.73633C6.64941 5.4033 6.73906 5.2205 6.85161 5.09729L5.37495 3.74841C4.86901 4.30228 4.64941 4.99513 4.64941 5.73633H6.64941ZM6.85599 6.35391C6.74302 6.24203 6.64941 6.07259 6.64941 5.73633H4.64941C4.64941 6.50684 4.89109 7.22281 5.44869 7.775L6.85599 6.35391ZM7.93069 6.90305C7.36318 6.73167 7.03449 6.53067 6.85599 6.35391L5.44869 7.775C5.94077 8.26229 6.60492 8.5919 7.35251 8.81765L7.93069 6.90305ZM9.37964 7.71547C9.01261 7.34262 8.49678 7.09496 7.96362 6.91362L7.31958 8.80708C7.74346 8.95126 7.91122 9.0747 7.95434 9.11851L9.37964 7.71547Z" fill="#32312D" mask="url(#path-1-inside-1)"/>
</svg>
