<svg width="20" height="29" viewBox="0 0 20 29" fill="none" xmlns="http://www.w3.org/2000/svg">
<mask id="path-1-inside-1" fill="white">
<path d="M19 1.66675C19.5523 1.66675 20 2.11446 20 2.66675L20 27.3334C20 27.8857 19.5523 28.3334 19 28.3334L1 28.3334C0.447716 28.3334 8.49441e-07 27.8857 8.71725e-07 27.3334L1.867e-06 2.66675C1.88928e-06 2.11446 0.447717 1.66675 1 1.66675L19 1.66675Z"/>
</mask>
<path d="M19 1.66675C19.5523 1.66675 20 2.11446 20 2.66675L20 27.3334C20 27.8857 19.5523 28.3334 19 28.3334L1 28.3334C0.447716 28.3334 8.49441e-07 27.8857 8.71725e-07 27.3334L1.867e-06 2.66675C1.88928e-06 2.11446 0.447717 1.66675 1 1.66675L19 1.66675Z" fill="#F5D59A"/>
<path d="M1 1.66675L1 0.666747L1 1.66675ZM20 27.3334L19 27.3334L20 27.3334ZM20 2.66675L21 2.66675L20 2.66675ZM19 1.66675L19 2.66675L19 1.66675ZM19 2.66675L19 27.3334L21 27.3334L21 2.66675L19 2.66675ZM19 27.3334L1 27.3334L1 29.3334L19 29.3334L19 27.3334ZM1 27.3334L1 2.66675L-0.999998 2.66675L-0.999999 27.3334L1 27.3334ZM1 2.66675L19 2.66675L19 0.666748L1 0.666747L1 2.66675ZM1 2.66675L1 2.66675L1 0.666747C-0.104566 0.666747 -0.999998 1.56218 -0.999998 2.66675L1 2.66675ZM1 27.3334L1 27.3334L-0.999999 27.3334C-0.999999 28.438 -0.104568 29.3334 1 29.3334L1 27.3334ZM19 27.3334L19 27.3334L19 29.3334C20.1046 29.3334 21 28.438 21 27.3334L19 27.3334ZM21 2.66675C21 1.56218 20.1046 0.666748 19 0.666748L19 2.66675L19 2.66675L21 2.66675Z" fill="#32312D" mask="url(#path-1-inside-1)"/>
<mask id="path-3-inside-2" fill="white">
<path d="M15.3845 1.66675L15.3845 4.00008C15.3845 4.55237 14.9368 5.00008 14.3845 5.00008L5.61524 5.00008C5.06296 5.00008 4.61524 4.55237 4.61524 4.00008L4.61524 1.66675L15.3845 1.66675Z"/>
</mask>
<path d="M15.3845 1.66675L15.3845 4.00008C15.3845 4.55237 14.9368 5.00008 14.3845 5.00008L5.61524 5.00008C5.06296 5.00008 4.61524 4.55237 4.61524 4.00008L4.61524 1.66675L15.3845 1.66675Z" fill="#32312D"/>
<path d="M15.3845 1.66675L15.8845 1.66675L15.8845 1.16675L15.3845 1.16675L15.3845 1.66675ZM4.61524 1.66675L4.61524 1.16675L4.11524 1.16675L4.11524 1.66675L4.61524 1.66675ZM4.61524 4.00008L4.11524 4.00008L4.61524 4.00008ZM15.3845 4.00008L14.8845 4.00008L15.3845 4.00008ZM14.8845 1.66675L14.8845 4.00008L15.8845 4.00008L15.8845 1.66675L14.8845 1.66675ZM14.3845 4.50008L5.61524 4.50008L5.61524 5.50008L14.3845 5.50008L14.3845 4.50008ZM5.11524 4.00008L5.11524 1.66675L4.11524 1.66675L4.11524 4.00008L5.11524 4.00008ZM4.61524 2.16675L15.3845 2.16675L15.3845 1.16675L4.61524 1.16675L4.61524 2.16675ZM5.61524 4.50008C5.3391 4.50008 5.11524 4.27622 5.11524 4.00008L4.11524 4.00008C4.11524 4.82851 4.78682 5.50008 5.61524 5.50008L5.61524 4.50008ZM14.8845 4.00008C14.8845 4.27622 14.6607 4.50008 14.3845 4.50008L14.3845 5.50008C15.2129 5.50008 15.8845 4.82851 15.8845 4.00008L14.8845 4.00008Z" fill="#32312D" mask="url(#path-3-inside-2)"/>
<rect x="15.1345" y="8.5835" width="14.5" height="10.2692" rx="0.75" transform="rotate(90 15.1345 8.5835)" fill="#F6F3EC" stroke="#32312D" stroke-width="0.5"/>
<circle cx="10.0002" cy="1.66667" r="1.41667" fill="white" stroke="#32312D" stroke-width="0.5"/>
</svg>
