<svg width="17" height="17" viewBox="0 0 17 17" fill="none" xmlns="http://www.w3.org/2000/svg">
<mask id="path-1-inside-1" fill="white">
<path fill-rule="evenodd" clip-rule="evenodd" d="M13.8251 1.02418L13.8124 1.03706L2.04827 12.8012L4.16959 14.9225L15.9466 3.14553L15.9465 3.14545C16.512 2.57986 16.4956 1.64652 15.9099 1.06075C15.3241 0.474965 14.3907 0.45859 13.8251 1.02418ZM2.04805 12.8011L1.06054 15.9099L4.16937 14.9224L2.04805 12.8011Z"/>
</mask>
<path fill-rule="evenodd" clip-rule="evenodd" d="M13.8251 1.02418L13.8124 1.03706L2.04827 12.8012L4.16959 14.9225L15.9466 3.14553L15.9465 3.14545C16.512 2.57986 16.4956 1.64652 15.9099 1.06075C15.3241 0.474965 14.3907 0.45859 13.8251 1.02418ZM2.04805 12.8011L1.06054 15.9099L4.16937 14.9224L2.04805 12.8011Z" fill="#F5D59A"/>
<path d="M13.8124 1.03706L14.166 1.39062L14.1682 1.38837L13.8124 1.03706ZM13.8251 1.02418L13.4716 0.670617L13.4693 0.672873L13.8251 1.02418ZM2.04827 12.8012L1.69471 12.4476L1.34116 12.8012L1.69471 13.1548L2.04827 12.8012ZM4.16959 14.9225L3.81603 15.2761L4.16959 15.6296L4.52314 15.2761L4.16959 14.9225ZM15.9466 3.14553L16.3001 3.49909L16.6537 3.14553L16.3001 2.79198L15.9466 3.14553ZM15.9465 3.14545L15.5929 2.79192L15.2394 3.14547L15.5929 3.49901L15.9465 3.14545ZM1.06054 15.9099L0.584003 15.7585L0.291701 16.6787L1.21191 16.3864L1.06054 15.9099ZM2.04805 12.8011L2.4016 12.4475L1.82037 11.8663L1.57151 12.6497L2.04805 12.8011ZM4.16937 14.9224L4.32074 15.3989L5.10416 15.1501L4.52293 14.5688L4.16937 14.9224ZM14.1682 1.38837L14.1809 1.37548L13.4693 0.672873L13.4566 0.685757L14.1682 1.38837ZM2.40182 13.1548L14.166 1.39061L13.4589 0.683508L1.69471 12.4476L2.40182 13.1548ZM4.52314 14.569L2.40182 12.4476L1.69471 13.1548L3.81603 15.2761L4.52314 14.569ZM15.593 2.79198L3.81603 14.569L4.52314 15.2761L16.3001 3.49909L15.593 2.79198ZM15.5929 3.49901L15.593 3.49909L16.3001 2.79198L16.3 2.7919L15.5929 3.49901ZM15.5563 1.4143C15.9586 1.81662 15.9516 2.43318 15.5929 2.79192L16.3001 3.49899C17.0724 2.72654 17.0327 1.47643 16.2634 0.707198L15.5563 1.4143ZM14.1787 1.37773C14.5374 1.019 15.154 1.01198 15.5563 1.4143L16.2634 0.707198C15.4942 -0.0620537 14.244 -0.101817 13.4716 0.670624L14.1787 1.37773ZM1.53708 16.0613L2.52459 12.9524L1.57151 12.6497L0.584003 15.7585L1.53708 16.0613ZM4.018 14.4459L0.909169 15.4334L1.21191 16.3864L4.32074 15.3989L4.018 14.4459ZM1.6945 13.1546L3.81582 15.2759L4.52293 14.5688L2.4016 12.4475L1.6945 13.1546Z" fill="#32312D" mask="url(#path-1-inside-1)"/>
<mask id="path-3-inside-2" fill="white">
<path fill-rule="evenodd" clip-rule="evenodd" d="M15.9098 1.06078C16.4956 1.64655 16.5119 2.57989 15.9464 3.14548L15.4344 3.65753L13.313 1.53621L13.8251 1.02416C14.3907 0.458622 15.324 0.475011 15.9098 1.06078Z"/>
</mask>
<path fill-rule="evenodd" clip-rule="evenodd" d="M15.9098 1.06078C16.4956 1.64655 16.5119 2.57989 15.9464 3.14548L15.4344 3.65753L13.313 1.53621L13.8251 1.02416C14.3907 0.458622 15.324 0.475011 15.9098 1.06078Z" fill="#D45D55"/>
<path d="M15.9464 3.14548L16.3 3.49904L16.3 3.49902L15.9464 3.14548ZM15.4344 3.65753L15.0808 4.01108L15.4344 4.36463L15.7879 4.01108L15.4344 3.65753ZM13.313 1.53621L12.9595 1.18265L12.6059 1.53621L12.9595 1.88976L13.313 1.53621ZM13.8251 1.02416L13.4715 0.670595L13.4715 0.67061L13.8251 1.02416ZM16.3 3.49902C17.0723 2.72658 17.0326 1.47646 16.2633 0.707229L15.5562 1.41434C15.9585 1.81665 15.9515 2.43321 15.5928 2.79195L16.3 3.49902ZM15.5928 2.79193L15.0808 3.30397L15.7879 4.01108L16.3 3.49904L15.5928 2.79193ZM15.7879 3.30397L13.6666 1.18265L12.9595 1.88976L15.0808 4.01108L15.7879 3.30397ZM13.6666 1.88976L14.1786 1.37772L13.4715 0.67061L12.9595 1.18265L13.6666 1.88976ZM16.2633 0.707229C15.4941 -0.0620034 14.244 -0.101784 13.4715 0.670595L14.1786 1.37773C14.5374 1.01903 15.1539 1.01203 15.5562 1.41434L16.2633 0.707229Z" fill="#32312D" mask="url(#path-3-inside-2)"/>
<mask id="path-5-inside-3" fill="white">
<path fill-rule="evenodd" clip-rule="evenodd" d="M5.17854 13.9134L3.05722 11.7921L2.04823 12.8011L2.04813 12.801L1.06062 15.9098L4.1694 14.9223L4.16951 14.9224L5.17854 13.9134Z"/>
</mask>
<path fill-rule="evenodd" clip-rule="evenodd" d="M5.17854 13.9134L3.05722 11.7921L2.04823 12.8011L2.04813 12.801L1.06062 15.9098L4.1694 14.9223L4.16951 14.9224L5.17854 13.9134Z" fill="#F8BD9F"/>
<path d="M3.05722 11.7921L3.41077 11.4385L3.05722 11.085L2.70367 11.4385L3.05722 11.7921ZM5.17854 13.9134L5.53209 14.267L5.88565 13.9134L5.53209 13.5599L5.17854 13.9134ZM2.04823 12.8011L1.69467 13.1546L2.04823 13.5082L2.40178 13.1546L2.04823 12.8011ZM2.04813 12.801L2.40169 12.4474L1.82045 11.8662L1.5716 12.6496L2.04813 12.801ZM1.06062 15.9098L0.584086 15.7584L0.291785 16.6787L1.21199 16.3864L1.06062 15.9098ZM4.1694 14.9223L4.52296 14.5688L4.3079 14.3537L4.01803 14.4458L4.1694 14.9223ZM4.16951 14.9224L3.81596 15.276L4.16951 15.6295L4.52306 15.276L4.16951 14.9224ZM2.70367 12.1456L4.82499 14.267L5.53209 13.5599L3.41077 11.4385L2.70367 12.1456ZM2.40178 13.1546L3.41077 12.1456L2.70367 11.4385L1.69467 12.4475L2.40178 13.1546ZM1.69458 13.1545L1.69467 13.1546L2.40178 12.4475L2.40169 12.4474L1.69458 13.1545ZM1.53716 16.0612L2.52467 12.9524L1.5716 12.6496L0.584086 15.7584L1.53716 16.0612ZM4.01803 14.4458L0.909252 15.4333L1.21199 16.3864L4.32077 15.3989L4.01803 14.4458ZM4.52306 14.5689L4.52296 14.5688L3.81585 15.2759L3.81596 15.276L4.52306 14.5689ZM4.82499 13.5599L3.81596 14.5689L4.52306 15.276L5.53209 14.267L4.82499 13.5599Z" fill="#32312D" mask="url(#path-5-inside-3)"/>
<mask id="path-7-inside-4" fill="white">
<path fill-rule="evenodd" clip-rule="evenodd" d="M2.04827 12.8012L2.0481 12.801L2.04793 12.8015L2.04827 12.8012ZM1.90292 13.258L1.06058 15.9099L3.7124 15.0675L1.90292 13.258Z"/>
</mask>
<path fill-rule="evenodd" clip-rule="evenodd" d="M2.04827 12.8012L2.0481 12.801L2.04793 12.8015L2.04827 12.8012ZM1.90292 13.258L1.06058 15.9099L3.7124 15.0675L1.90292 13.258Z" fill="#A0A0A0"/>
<path d="M2.0481 12.801L2.40165 12.4475L1.82041 11.8662L1.57156 12.6497L2.0481 12.801ZM2.04827 12.8012L2.40182 13.1548L2.75538 12.8012L2.40182 12.4476L2.04827 12.8012ZM2.04793 12.8015L1.5714 12.6502L2.40149 13.1551L2.04793 12.8015ZM1.06058 15.9099L0.584048 15.7585L0.291747 16.6787L1.21196 16.3864L1.06058 15.9099ZM1.90292 13.258L2.25648 12.9045L1.67524 12.3233L1.42639 13.1067L1.90292 13.258ZM3.7124 15.0675L3.86377 15.5441L4.64719 15.2952L4.06595 14.714L3.7124 15.0675ZM1.69454 13.1546L1.69471 13.1548L2.40182 12.4476L2.40165 12.4475L1.69454 13.1546ZM2.52447 12.9529L2.52463 12.9524L1.57156 12.6497L1.5714 12.6502L2.52447 12.9529ZM2.40149 13.1551L2.40182 13.1548L1.69471 12.4476L1.69438 12.448L2.40149 13.1551ZM1.53712 16.0612L2.37946 13.4094L1.42639 13.1067L0.584048 15.7585L1.53712 16.0612ZM3.56103 14.591L0.909214 15.4333L1.21196 16.3864L3.86377 15.5441L3.56103 14.591ZM4.06595 14.714L2.25648 12.9045L1.54937 13.6116L3.35884 15.4211L4.06595 14.714Z" fill="#32312D" mask="url(#path-7-inside-4)"/>
</svg>
