<svg width="65" height="60" viewBox="0 0 65 60" fill="none" xmlns="http://www.w3.org/2000/svg">
<path d="M43.1551 31.8533C42.7987 31.9602 42.4244 31.7559 42.3186 31.3961C42.2127 31.0363 42.415 30.6584 42.7714 30.5515C53.3199 27.3532 53.8923 23.8121 52.6512 19.638C52.4027 18.804 52.0757 17.9129 51.7381 16.9943C50.9855 14.9464 50.1846 12.7662 49.9645 10.3776C49.9519 10.2389 49.9823 10.1066 50.0431 9.99337C50.2444 9.58697 53.495 2.95968 52.1375 1.64946C50.7486 0.308546 46.1069 3.1343 46.0933 3.14171C45.9015 3.25813 45.6751 3.26554 45.4832 3.18299L45.4822 3.18404C45.4727 3.17981 42.1603 1.70555 36.5406 1.70555C30.9209 1.70555 27.6095 3.18087 27.599 3.18404C27.3789 3.27929 27.1347 3.24754 26.9512 3.11948C26.5099 2.85596 22.2635 0.377337 20.9448 1.64946C19.5464 2.99883 23.0392 9.99232 23.0496 10.0124C23.1073 10.1288 23.1283 10.2548 23.1178 10.3765C22.8987 12.7652 22.0968 14.9464 21.3441 16.9932C21.0066 17.9118 20.6796 18.803 20.4311 19.6369C19.19 23.811 19.7623 27.3511 30.3109 30.5505C30.6673 30.6574 30.8696 31.0363 30.7637 31.395C30.6578 31.7549 30.2836 31.9591 29.9272 31.8522C26.6378 30.8553 24.23 29.8096 22.5004 28.7132C21.7456 31.3019 20.7739 35.3532 20.2487 39.4278C19.8462 42.5499 19.7036 45.6826 20.1219 48.1654C20.1512 48.34 20.1984 48.6385 20.2445 48.9327C20.6282 51.3584 20.971 53.5322 23.8253 54.0974C27.7804 54.8816 32.3654 51.8685 36.6255 51.8685C40.8856 51.8685 45.4707 54.8816 49.4257 54.0974C52.279 53.5322 52.6229 51.3584 53.0065 48.9327C53.0526 48.6385 53.0998 48.3432 53.1292 48.1654C53.5506 45.6667 53.4028 42.5086 52.9939 39.3654C52.8105 37.9535 52.5736 36.547 52.3115 35.204L52.3094 35.1913C51.8094 32.6301 51.2182 30.3028 50.7245 28.6201C48.9854 29.7525 46.5367 30.8278 43.1551 31.8533Z" fill="#E3D8CC"/>
<path fill-rule="evenodd" clip-rule="evenodd" d="M36.6025 17.8103C39.9496 17.8103 42.6635 19.9979 42.6635 21.8627C42.6635 23.7274 39.9496 24.5667 36.6025 24.5667C33.2555 24.5667 30.5415 23.7285 30.5415 21.8627C30.5415 19.9968 33.2555 17.8103 36.6025 17.8103Z" fill="white"/>
<path d="M49.6835 55.432C47.1646 55.9315 44.9402 55.3187 42.7274 54.6054C42.5397 55.0584 42.3951 55.5209 42.3636 55.9188C42.3374 56.2533 42.4003 56.5263 42.6257 56.6395L42.6278 56.6406L42.6288 56.6395L42.6425 56.6459C43.763 57.1804 47.9256 57.9773 51.5851 58.0715C53.9342 58.1318 56.0181 57.9138 56.7718 57.1613C58.0119 55.9199 54.5107 54.0509 53.0914 53.3661C52.4436 54.3483 51.4194 55.088 49.6835 55.432Z" fill="#CBC2B7"/>
<path d="M23.5674 55.432C21.8315 55.088 20.8074 54.3483 20.1616 53.3661C18.7423 54.0509 15.2401 55.9209 16.4812 57.1613C17.2339 57.9148 19.3178 58.1318 21.668 58.0715C25.3264 57.9773 29.49 57.1803 30.6106 56.6459L30.6242 56.6395L30.6253 56.6406L30.6274 56.6395C30.8517 56.5252 30.9156 56.2532 30.8894 55.9188C30.858 55.5198 30.7133 55.0584 30.5257 54.6054C28.3107 55.3187 26.0874 55.9315 23.5674 55.432Z" fill="#CBC2B7"/>
<path d="M14.9876 44.3226C14.8188 43.9829 14.6951 43.6125 14.6081 43.2188C12.8879 42.3266 11.3879 41.0651 10.1709 39.8226C8.90038 38.5251 7.94123 37.2466 7.37204 36.4444C6.90556 35.7861 6.30177 35.5797 5.67387 35.7014C5.18329 35.7967 4.66546 36.074 4.1623 36.4856C3.62874 36.9227 3.12033 37.5059 2.68531 38.1843C1.39072 40.2015 0.760725 43.024 2.02387 45.3259C3.19476 47.4606 5.63928 48.7147 8.41504 49.3698C12.0692 50.2324 16.2528 50.0503 18.9678 49.4587L18.9185 49.1465C18.886 48.937 18.8525 48.7264 18.7959 48.3898C18.6648 47.6098 18.5852 46.7727 18.5495 45.8964C18.1061 46.0075 17.626 46.0255 17.1616 45.9398C16.4572 45.8106 15.778 45.4487 15.2958 44.8211C15.1825 44.6719 15.0788 44.5068 14.9876 44.3226Z" fill="#CBC2B7"/>
<path d="M21.34 27.8909C21.2802 27.8433 21.2215 27.7957 21.1639 27.748C19.7047 30.1579 15.149 38.1229 15.8262 42.5266C15.8513 42.5986 15.865 42.6737 15.866 42.751C15.9362 43.0992 16.0411 43.423 16.1868 43.7173C16.235 43.8157 16.2937 43.9067 16.3587 43.9924C16.6218 44.3343 17.0013 44.5343 17.3986 44.6073C17.7937 44.6793 18.1984 44.6306 18.5275 44.4771C18.5422 42.8018 18.6889 41.0238 18.9175 39.2553C19.4867 34.8505 20.558 30.4913 21.34 27.8909Z" fill="#E3D8CC"/>
<path d="M52.7822 26.9331C52.5159 27.2199 52.2161 27.5035 51.8754 27.7829C52.3472 29.3345 52.9279 31.5432 53.4426 34.0229C55.5569 32.7973 57.3808 31.4829 58.8662 30.0001C60.5088 28.3608 61.7384 26.5129 62.489 24.3455C63.2353 22.1875 63.3359 20.8487 63.0823 20.1238C63.0057 19.9068 62.9009 19.7724 62.7783 19.7078C62.6535 19.6422 62.4869 19.6337 62.2982 19.674C61.7363 19.7946 61.0906 20.2846 60.5969 21.0022C59.6168 22.4288 58.5538 23.6004 57.2519 24.5868C56.015 25.5255 54.5694 26.2875 52.7822 26.9331Z" fill="#E3D8CC"/>
<path d="M43.1551 31.8533C42.7987 31.9602 42.4244 31.7559 42.3186 31.3961C42.2127 31.0363 42.415 30.6585 42.7714 30.5516C53.3199 27.3533 53.8923 23.8121 52.6512 19.638C52.4027 18.804 52.0757 17.9129 51.7381 16.9943C50.9855 14.9464 50.1846 12.7662 49.9645 10.3776C49.9519 10.2389 49.9823 10.1066 50.0431 9.99339C50.2444 9.58699 53.495 2.9597 52.1375 1.64948C50.7486 0.308565 46.1069 3.13432 46.0933 3.14173C45.9015 3.25815 45.6751 3.26556 45.4832 3.18301L45.4822 3.18406C45.4727 3.17983 42.1603 1.70557 36.5406 1.70557C30.9209 1.70557 27.6095 3.18089 27.599 3.18406C27.3789 3.27931 27.1347 3.24756 26.9512 3.1195C26.5099 2.85598 22.2634 0.377357 20.9447 1.64948C19.5464 2.99885 23.0392 9.99234 23.0496 10.0124C23.1073 10.1289 23.1283 10.2548 23.1178 10.3765C22.8987 12.7652 22.0968 14.9464 21.3441 16.9932C21.0066 17.9119 20.6795 18.803 20.4311 19.6369C19.19 23.811 19.7623 27.3512 30.3109 30.5505C30.6673 30.6574 30.8696 31.0363 30.7637 31.3951C30.6578 31.7549 30.2836 31.9591 29.9272 31.8523C26.6378 30.8553 24.23 29.8097 22.5004 28.7132C21.7456 31.3019 20.7739 35.3532 20.2487 39.4278C19.8462 42.5499 19.7036 45.6826 20.1219 48.1654C20.1512 48.3401 20.1984 48.6385 20.2445 48.9327C20.6282 51.3584 20.971 53.5323 23.8253 54.0974C27.7804 54.8816 32.3654 51.8686 36.6255 51.8686C40.8856 51.8686 45.4706 54.8816 49.4257 54.0974C52.279 53.5323 52.6229 51.3584 53.0065 48.9327C53.0526 48.6385 53.0998 48.3432 53.1292 48.1654C53.5506 45.6667 53.4028 42.5086 52.9939 39.3654C52.8105 37.9536 52.5736 36.547 52.3115 35.204L52.3094 35.1913C51.8094 32.6301 51.2182 30.3029 50.7245 28.6201C48.9854 29.7525 46.5367 30.8278 43.1551 31.8533ZM50.0641 3.24333C48.8995 3.42113 47.7349 3.93019 46.5703 4.90068C47.3921 5.86589 48.0074 7.03746 48.2118 8.34239C48.4959 7.28723 47.9906 6.18974 47.9382 5.13352C48.2129 4.34082 49.3282 3.72805 50.0641 3.24333ZM22.0737 3.24333C23.2383 3.42113 24.4029 3.93019 25.5675 4.90068C24.7457 5.86589 24.1304 7.03746 23.926 8.34239C23.6419 7.28723 24.1472 6.18974 24.1996 5.13352C23.926 4.34082 22.8106 3.72805 22.0737 3.24333ZM53.9395 19.2517C54.5401 21.2721 54.798 23.1601 54.0852 24.9307C54.9699 24.5074 55.7477 24.0364 56.449 23.5052C57.6261 22.614 58.5937 21.5441 59.4941 20.2349C60.1828 19.2337 61.1451 18.5363 62.0215 18.349C62.512 18.2442 62.9869 18.2865 63.402 18.5045C63.8203 18.7236 64.1536 19.1057 64.3528 19.674C64.6976 20.6593 64.619 22.3082 63.7595 24.7932C62.9376 27.167 61.598 29.1853 59.8107 30.9685C58.1492 32.627 56.0999 34.0779 53.7214 35.4231C53.952 36.6476 54.1596 37.9186 54.3263 39.1918C54.7508 42.4547 54.9007 45.7493 54.4562 48.3898C54.3996 48.7232 54.3661 48.937 54.3336 49.1465C54.1648 50.2144 54.0023 51.242 53.6795 52.1511C55.4343 53.02 60.1577 55.6817 57.7184 58.1223C56.6639 59.1774 54.2246 59.4939 51.5536 59.4261C47.7265 59.3277 43.2966 58.4578 42.0691 57.8736L42.024 57.8513V57.8503C41.2043 57.4343 40.9537 56.6829 41.0229 55.813C41.0638 55.2923 41.2294 54.7292 41.4454 54.1884C39.8772 53.6836 38.2922 53.2306 36.6266 53.2306C34.9609 53.2306 33.3759 53.6836 31.8078 54.1884C32.0237 54.7292 32.1893 55.2933 32.2302 55.813C32.2983 56.6829 32.0489 57.4343 31.2291 57.8503L31.2302 57.8513L31.1851 57.8736C29.9586 58.4588 25.5287 59.3288 21.7016 59.4261C19.0306 59.4949 16.5914 59.1774 15.5368 58.1223C13.0965 55.6817 17.8199 53.02 19.5757 52.1511C19.4237 51.7214 19.3074 51.2664 19.2088 50.7922C16.3304 51.4092 11.9413 51.5944 8.11417 50.6917C5.00297 49.9583 2.23769 48.5041 0.853997 45.9842C-0.682737 43.1828 0.0384597 39.8215 1.56261 37.4456C2.07311 36.6497 2.6769 35.9597 3.31843 35.4337C3.99141 34.8823 4.7126 34.5066 5.42437 34.3679C6.56591 34.1457 7.65085 34.5023 8.46953 35.658C9.01043 36.4221 9.9245 37.6382 11.131 38.8711C12.0745 39.8353 13.1982 40.809 14.4603 41.5805C14.5263 36.3735 18.9625 28.7693 20.1722 26.7902C18.1459 24.4989 18.3294 21.996 19.146 19.2507C19.4154 18.3468 19.7456 17.4483 20.0852 16.5223C20.7907 14.6035 21.5402 12.5641 21.7666 10.4411C21.1984 9.26208 18.0841 2.53848 20.0223 0.667341C21.863 -1.1096 26.2195 1.151 27.3883 1.80929C28.3821 1.43146 31.6642 0.346666 36.5438 0.346666C41.4223 0.346666 44.7054 1.43252 45.6992 1.80929C46.868 1.151 51.2245 -1.1096 53.0652 0.667341C55.0034 2.53848 51.8891 9.26208 51.3209 10.4411C51.5473 12.563 52.2968 14.6024 53.0023 16.5223C53.3399 17.4483 53.6701 18.3468 53.9395 19.2517ZM52.7822 26.9331C52.5159 27.2199 52.2161 27.5036 51.8754 27.783C52.3472 29.3345 52.9279 31.5432 53.4426 34.0229C55.5569 32.7974 57.3809 31.4829 58.8662 30.0002C60.5088 28.3608 61.7384 26.513 62.489 24.3455C63.2353 22.1875 63.336 20.8487 63.0823 20.1238C63.0058 19.9068 62.9009 19.7724 62.7783 19.7079C62.6536 19.6422 62.4869 19.6338 62.2982 19.674C61.7363 19.7946 61.0906 20.2846 60.5969 21.0022C59.6168 22.4288 58.5539 23.6004 57.2519 24.5868C56.015 25.5255 54.5695 26.2875 52.7822 26.9331ZM21.3399 27.8909C21.2802 27.8433 21.2215 27.7957 21.1638 27.748C19.7047 30.1579 15.149 38.1229 15.8261 42.5266C15.8513 42.5986 15.8649 42.6737 15.866 42.751C15.9362 43.0992 16.041 43.423 16.1867 43.7173C16.235 43.8157 16.2937 43.9067 16.3587 43.9924C16.6218 44.3343 17.0012 44.5343 17.3985 44.6073C17.7937 44.6793 18.1983 44.6306 18.5275 44.4771C18.5422 42.8018 18.6889 41.0238 18.9174 39.2553C19.4866 34.8505 20.5579 30.4912 21.3399 27.8909ZM14.9875 44.3226C14.8188 43.9829 14.6951 43.6125 14.6081 43.2188C12.8879 42.3266 11.3879 41.0651 10.1708 39.8226C8.90036 38.5251 7.94121 37.2466 7.37201 36.4444C6.90554 35.7861 6.30175 35.5797 5.67385 35.7014C5.18327 35.7967 4.66543 36.074 4.16227 36.4856C3.62871 36.9227 3.12031 37.5059 2.68529 38.1843C1.3907 40.2015 0.760703 43.024 2.02384 45.3259C3.19474 47.4606 5.63926 48.7147 8.41502 49.3698C12.0692 50.2324 16.2528 50.0503 18.9678 49.4587L18.9185 49.1465C18.886 48.937 18.8524 48.7264 18.7958 48.3898C18.6648 47.6098 18.5851 46.7727 18.5495 45.8964C18.1061 46.0075 17.626 46.0255 17.1616 45.9398C16.4572 45.8106 15.7779 45.4487 15.2957 44.8211C15.1825 44.6719 15.0787 44.5068 14.9875 44.3226ZM23.5675 55.432C21.8316 55.088 20.8074 54.3482 20.1617 53.3661C18.7424 54.0508 15.2402 55.9209 16.4813 57.1613C17.2339 57.9148 19.3179 58.1318 21.668 58.0715C25.3264 57.9773 29.4901 57.1803 30.6107 56.6459L30.6243 56.6395L30.6253 56.6406L30.6274 56.6395C30.8518 56.5252 30.9157 56.2532 30.8895 55.9188C30.858 55.5198 30.7134 55.0584 30.5257 54.6054C28.3108 55.3187 26.0875 55.9315 23.5675 55.432ZM49.6836 55.432C47.1646 55.9315 44.9402 55.3187 42.7274 54.6054C42.5397 55.0584 42.3951 55.5209 42.3636 55.9188C42.3374 56.2532 42.4003 56.5263 42.6257 56.6395L42.6278 56.6406L42.6288 56.6395L42.6425 56.6459C43.7631 57.1803 47.9256 57.9773 51.5851 58.0715C53.9342 58.1318 56.0181 57.9138 56.7718 57.1613C58.0119 55.9199 54.5107 54.0508 53.0914 53.3661C52.4436 54.3482 51.4195 55.088 49.6836 55.432Z" fill="#32312D"/>
<path fill-rule="evenodd" clip-rule="evenodd" d="M29.5237 10.6379C30.639 10.6379 31.5436 11.8179 31.5436 13.2721C31.5436 14.7273 30.639 15.9063 29.5237 15.9063C28.4083 15.9063 27.5037 14.7262 27.5037 13.2721C27.5037 11.8169 28.4073 10.6379 29.5237 10.6379Z" fill="#32312D"/>
<path fill-rule="evenodd" clip-rule="evenodd" d="M42.4872 10.6379C43.6026 10.6379 44.5072 11.8179 44.5072 13.2721C44.5072 14.7273 43.6026 15.9063 42.4872 15.9063C41.3719 15.9063 40.4673 14.7262 40.4673 13.2721C40.4662 11.8169 41.3709 10.6379 42.4872 10.6379Z" fill="#32312D"/>
<path fill-rule="evenodd" clip-rule="evenodd" d="M36.5427 17.0208C38.0994 17.0208 39.3615 17.3753 39.3615 18.5532C39.3615 19.7322 38.0994 21.289 36.5427 21.289C34.9861 21.289 33.724 19.7322 33.724 18.5532C33.724 17.3742 34.9861 17.0208 36.5427 17.0208Z" fill="#32312D"/>
<path d="M39.3594 24.6037L39.1675 26.3161C39.1172 26.768 38.9118 27.1829 38.5941 27.4824C38.2849 27.7734 37.875 27.9544 37.4023 27.9544H35.6831C35.2104 27.9544 34.7995 27.7724 34.4892 27.4803C34.1705 27.1797 33.964 26.7617 33.9127 26.3098L33.7219 24.6048C33.2889 24.6281 32.8466 24.5931 32.4178 24.4873C31.5048 24.2608 30.6578 23.7179 30.0865 22.7283C29.901 22.4045 30.01 21.9896 30.3308 21.8012C30.6515 21.6139 31.0625 21.724 31.2491 22.0478C31.6128 22.6786 32.1537 23.0247 32.7386 23.1697C33.1841 23.2797 33.6579 23.2787 34.1045 23.1972C34.1475 23.1834 34.1925 23.1728 34.2387 23.1686L34.2565 23.1665C34.2806 23.1612 34.3058 23.1549 34.3299 23.1496C34.833 23.0257 35.2754 22.8088 35.572 22.5495C35.7565 22.3886 35.8676 22.232 35.8676 22.1082V21.289C35.8676 20.9133 36.1695 20.6096 36.5406 20.6096C36.9127 20.6096 37.2136 20.9144 37.2136 21.289V22.1082C37.2136 22.233 37.3258 22.3886 37.5092 22.5495C37.8069 22.8088 38.2482 23.0257 38.7514 23.1496C39.2608 23.2744 39.8206 23.2988 40.3426 23.1697C40.9265 23.0247 41.4684 22.6786 41.8322 22.0478C42.0177 21.724 42.4297 21.6129 42.7505 21.8012C43.0712 21.9886 43.1813 22.4045 42.9947 22.7283C42.4244 23.7179 41.5775 24.2608 40.6634 24.4873C40.2368 24.5931 39.7933 24.6281 39.3594 24.6037ZM36.5427 23.4925C36.5134 23.52 36.483 23.5475 36.4526 23.575C36.0867 23.8946 35.5972 24.1666 35.0479 24.3508L35.2502 26.1616C35.2649 26.2907 35.3205 26.4071 35.4054 26.4876C35.4756 26.5542 35.571 26.5955 35.6831 26.5955H37.4023C37.5155 26.5955 37.6098 26.5553 37.679 26.4907C37.7629 26.4124 37.8174 26.2981 37.8321 26.169L38.0354 24.3497C37.4872 24.1656 36.9987 23.8936 36.6339 23.575C36.6025 23.5475 36.5721 23.52 36.5427 23.4925Z" fill="#32312D"/>
<path d="M36.5428 23.4925C36.5134 23.52 36.483 23.5475 36.4526 23.575C36.0868 23.8946 35.5972 24.1666 35.048 24.3508L35.2503 26.1616C35.2649 26.2907 35.3205 26.4071 35.4054 26.4875C35.4756 26.5542 35.571 26.5955 35.6832 26.5955H37.4023C37.5155 26.5955 37.6099 26.5553 37.6791 26.4907C37.7629 26.4124 37.8174 26.2981 37.8321 26.169L38.0355 24.3497C37.4872 24.1656 36.9987 23.8936 36.634 23.575C36.6025 23.5475 36.5721 23.52 36.5428 23.4925Z" fill="white"/>
<path fill-rule="evenodd" clip-rule="evenodd" d="M28.7301 11.5418C28.9744 11.5418 29.1725 11.8508 29.1725 12.2318C29.1725 12.6128 28.9744 12.9218 28.7301 12.9218C28.4859 12.9218 28.2878 12.6128 28.2878 12.2318C28.2888 11.8508 28.4869 11.5418 28.7301 11.5418Z" fill="white"/>
<path fill-rule="evenodd" clip-rule="evenodd" d="M41.6246 11.5418C41.8689 11.5418 42.067 11.8508 42.067 12.2318C42.067 12.6128 41.8689 12.9218 41.6246 12.9218C41.3804 12.9218 41.1823 12.6128 41.1823 12.2318C41.1833 11.8508 41.3804 11.5418 41.6246 11.5418Z" fill="white"/>
<path fill-rule="evenodd" clip-rule="evenodd" d="M36.7481 33.7848C42.4401 33.7848 44.9853 42.86 44.9853 47.4521C44.9853 52.0453 41.2975 49.1052 36.7481 49.1052C32.1987 49.1052 28.511 52.0453 28.511 47.4521C28.511 42.859 31.0551 33.7848 36.7481 33.7848Z" fill="white"/>
</svg>
