<svg width="16" height="12" viewBox="0 0 16 12" fill="none" xmlns="http://www.w3.org/2000/svg">
<path d="M16 0.00672484C15.3036 0.458456 14.5324 0.803959 13.7164 1.02993C13.2784 0.566818 12.6962 0.238578 12.0488 0.0896016C11.4013 -0.0593751 10.7196 -0.021901 10.0961 0.196956C9.47248 0.415812 8.93705 0.805492 8.56217 1.31329C8.18729 1.82109 7.99105 2.42251 8 3.0362V3.70496C6.72192 3.73544 5.45547 3.47478 4.31346 2.94622C3.17145 2.41765 2.18932 1.63758 1.45455 0.675484C1.45455 0.675484 -1.45455 6.69432 5.09091 9.36935C3.59311 10.3043 1.80884 10.773 0 10.7069C6.54545 14.0507 14.5455 10.7069 14.5455 3.01614C14.5448 2.82986 14.5253 2.64404 14.4873 2.46107C15.2295 1.78796 15.7533 0.938114 16 0.00672484V0.00672484Z" fill="#32312D"/>
</svg>
