<svg width="20" height="20" viewBox="0 0 20 20" fill="none" xmlns="http://www.w3.org/2000/svg">
<path d="M15.3904 5.28577C15.4542 5.3546 15.5512 5.38186 15.6416 5.35635C16.3098 5.1677 16.9507 4.90416 17.5506 4.57184C17.2615 5.28735 16.81 5.93986 16.223 6.4826C16.1588 6.54193 16.1303 6.63047 16.1478 6.7161C16.1849 6.89804 16.2039 7.08273 16.2045 7.26784C16.2044 11.3376 14.134 14.24 11.2236 15.6924C8.57823 17.0125 5.22535 17.1403 2.08068 15.8292C3.67174 15.7119 5.21079 15.2091 6.54332 14.361C6.6219 14.311 6.66617 14.2215 6.65817 14.1287C6.65017 14.0359 6.59124 13.9552 6.50525 13.9194C4.8048 13.2108 3.73558 12.2886 3.07861 11.316C2.42105 10.3426 2.16559 9.3025 2.11902 8.34211C2.07239 7.38013 2.23571 6.50202 2.41216 5.86234C2.48265 5.60683 2.55492 5.39045 2.61604 5.22326C3.3859 6.14254 4.36227 6.89207 5.47636 7.41783C6.72542 8.00727 8.10968 8.29758 9.50608 8.26364C9.64174 8.26034 9.75 8.14941 9.75 8.01371V7.28922H9.75003L9.74997 7.28565C9.74126 6.67591 9.93236 6.07683 10.2998 5.56935C10.6674 5.06161 11.1944 4.66951 11.8113 4.44875C12.4283 4.22796 13.1034 4.19002 13.7447 4.34046C14.3859 4.49088 14.9599 4.82178 15.3904 5.28577Z" fill="#32312D" stroke="#32312D" stroke-width="0.5" stroke-linecap="round" stroke-linejoin="round"/>
</svg>
