<svg width="21" height="20" viewBox="0 0 21 20" fill="none" xmlns="http://www.w3.org/2000/svg">
<path fill-rule="evenodd" clip-rule="evenodd" d="M10.5664 0C5.04154 0 0.566406 4.58772 0.566406 10.2516C0.566406 14.7826 3.4332 18.6215 7.40496 19.9808C7.90219 20.0752 8.08636 19.7605 8.08636 19.4836C8.08636 19.2382 8.08022 18.5963 8.07408 17.7404C5.29323 18.3572 4.70391 16.3685 4.70391 16.3685C4.24965 15.1854 3.5928 14.8645 3.5928 14.8645C2.68427 14.2288 3.66033 14.2414 3.66033 14.2414C4.66094 14.3169 5.19501 15.2987 5.19501 15.2987C6.08513 16.8657 7.53387 16.4126 8.10477 16.1483C8.19685 15.4875 8.45468 15.0344 8.73706 14.7763C6.52098 14.5246 4.18826 13.6436 4.18826 9.71664C4.18826 8.59646 4.575 7.68395 5.21957 6.96653C5.11521 6.70222 4.77144 5.66385 5.31165 4.25418C5.31165 4.25418 6.15266 3.97728 8.0618 5.30514C8.85984 5.07858 9.71312 4.96531 10.5664 4.95901C11.4136 4.96531 12.273 5.07858 13.071 5.30514C14.9802 3.97728 15.8212 4.25418 15.8212 4.25418C16.3675 5.66385 16.0237 6.70851 15.9194 6.96653C16.5578 7.68395 16.9446 8.59646 16.9446 9.71664C16.9446 13.6562 14.6057 14.5183 12.3773 14.7763C12.7334 15.091 13.0587 15.7203 13.0587 16.6769C13.0587 18.0488 13.0465 19.1501 13.0465 19.4899C13.0465 19.7668 13.2245 20.0815 13.734 19.9808C17.7058 18.6215 20.5664 14.7826 20.5664 10.2579C20.5664 4.58772 16.0913 0 10.5664 0Z" fill="#32312D"/>
</svg>
