<svg width="21" height="15" viewBox="0 0 21 15" fill="none" xmlns="http://www.w3.org/2000/svg">
<g clip-path="url(#clip0)">
<path d="M20.5664 1.82656C19.8305 2.12636 19.0397 2.32898 18.2097 2.42011C19.0569 1.95358 19.7075 1.21486 20.0139 0.334672C19.2211 0.766599 18.3429 1.08031 17.4083 1.2494C16.6598 0.516798 15.5934 0.0589962 14.4132 0.0589962C12.1471 0.0589962 10.3098 1.74672 10.3098 3.8284C10.3098 4.12383 10.3462 4.41154 10.4161 4.68741C7.00592 4.53022 3.98248 3.02953 1.9587 0.748991C1.60551 1.30572 1.40316 1.95324 1.40316 2.64404C1.40316 3.95179 2.12762 5.10556 3.22861 5.78151C2.55595 5.76196 1.9233 5.5924 1.37002 5.31007C1.36973 5.3258 1.36973 5.34159 1.36973 5.35745C1.36973 7.18382 2.78412 8.70736 4.66122 9.0536C4.31687 9.13975 3.95439 9.18579 3.58012 9.18579C3.31574 9.18579 3.05867 9.1622 2.80819 9.11818C3.3303 10.6158 4.84564 11.7056 6.64117 11.736C5.23688 12.747 3.46761 13.3496 1.54523 13.3496C1.21405 13.3496 0.887413 13.3318 0.566406 13.297C2.38227 14.3665 4.53912 14.9905 6.85632 14.9905C14.4036 14.9905 18.5308 9.24668 18.5308 4.2655C18.5308 4.10206 18.5268 3.93949 18.5189 3.77786C19.3206 3.2464 20.0163 2.58248 20.5664 1.82656Z" fill="#32312D"/>
</g>
<defs>
<clipPath id="clip0">
<rect width="20" height="15" fill="white" transform="translate(0.566406)"/>
</clipPath>
</defs>
</svg>
