<svg width="57" height="54" viewBox="0 0 57 54" fill="none" xmlns="http://www.w3.org/2000/svg">
<path d="M8 8H56V53H8V8Z" fill="#F5D59A" stroke="#32312D" stroke-width="2"/>
<path d="M1 1H49V46H1V1Z" fill="white" stroke="#32312D" stroke-width="2"/>
<path d="M8 25H43V27H8V25Z" fill="#32312D"/>
<path d="M8.34033 19.5474L9.20361 19.4229L12.8809 8.91406H15.3628L19.0151 19.4229L19.8784 19.5474V21H15.7612V19.5474L16.5996 19.3979L16.0684 17.7378H12.1504L11.6191 19.3979L12.4575 19.5474V21H8.34033V19.5474ZM12.7231 15.9531H15.4956L14.1343 11.6948H14.0845L12.7231 15.9531ZM28.4863 15.6875H24.394V19.1406H28.2954L28.4033 17.6963H30.2461V21H20.6836V19.5474L21.9702 19.2983V10.624L20.6836 10.375V8.91406H21.9702H30.2295V12.2261H28.3701L28.2622 10.7817H24.394V13.8198H28.4863V15.6875ZM41.4438 12.9897H39.6426L39.3936 11.3794C39.1556 11.1414 38.854 10.9533 38.4888 10.8149C38.1291 10.6766 37.703 10.6074 37.2104 10.6074C36.159 10.6074 35.3483 10.9893 34.7783 11.7529C34.2139 12.5166 33.9316 13.5127 33.9316 14.7412V15.1646C33.9316 16.3931 34.2139 17.3919 34.7783 18.1611C35.3428 18.9303 36.1396 19.3149 37.1689 19.3149C37.6449 19.3149 38.0793 19.2458 38.4722 19.1074C38.8706 18.9691 39.1777 18.7809 39.3936 18.543L39.6426 16.9326H41.4438V19.3232C40.9569 19.8877 40.3343 20.3387 39.5762 20.6763C38.8236 21.0083 37.9797 21.1743 37.0444 21.1743C35.423 21.1743 34.0949 20.6126 33.0601 19.4893C32.0252 18.3659 31.5078 16.9243 31.5078 15.1646V14.7578C31.5078 13.0036 32.0225 11.562 33.0518 10.4331C34.0811 9.3042 35.4119 8.73975 37.0444 8.73975C37.9797 8.73975 38.8236 8.9113 39.5762 9.25439C40.3288 9.59196 40.9513 10.0402 41.4438 10.5991V12.9897Z" fill="#32312D"/>
<path d="M15.4004 38.0508C15.123 38.3242 14.7188 38.5723 14.1875 38.7949C13.6562 39.0137 12.9844 39.123 12.1719 39.123C11.0195 39.123 10.082 38.7383 9.35938 37.9688C8.63672 37.1953 8.27539 36.1914 8.27539 34.957V34.6641C8.27539 33.3867 8.63086 32.3477 9.3418 31.5469C10.0566 30.7461 10.9883 30.3457 12.1367 30.3457C12.8047 30.3457 13.4141 30.4531 13.9648 30.668C14.5195 30.8789 14.9805 31.166 15.3477 31.5293V33.2461H14.082L13.8418 32.1035C13.6855 31.9707 13.4785 31.8652 13.2207 31.7871C12.9668 31.7051 12.6738 31.6641 12.3418 31.6641C11.5957 31.6641 11.0156 31.9395 10.6016 32.4902C10.1875 33.041 9.98047 33.7617 9.98047 34.6523V34.957C9.98047 35.8242 10.1836 36.5176 10.5898 37.0371C10.9961 37.5527 11.582 37.8105 12.3477 37.8105C12.6914 37.8105 12.9688 37.7812 13.1797 37.7227C13.3945 37.6641 13.5625 37.5957 13.6836 37.5176V36.0703L12.4648 35.9766V34.7754H15.4004V38.0508ZM21.0983 38.1973C20.8952 38.4941 20.6432 38.7227 20.3424 38.8828C20.0455 39.043 19.7057 39.123 19.3229 39.123C18.6549 39.123 18.1315 38.9102 17.7526 38.4844C17.3737 38.0547 17.1842 37.3887 17.1842 36.4863V33.8672L16.487 33.6914V32.6602H17.1842H18.8952V36.498C18.8952 36.959 18.9713 37.291 19.1237 37.4941C19.2799 37.6934 19.5104 37.793 19.8151 37.793C20.0846 37.793 20.317 37.75 20.5123 37.6641C20.7116 37.5742 20.8737 37.4473 20.9987 37.2832V33.8672L20.2487 33.6914V32.6602H20.9987H22.7096V37.7988L23.4772 37.9746V39H21.2096L21.0983 38.1973ZM24.4583 37.9746L25.2845 37.7988V33.8672L24.3704 33.6914V32.6602H26.9954V37.7988L27.8157 37.9746V39H24.4583V37.9746ZM26.9954 31.1426H25.2845V29.8594H26.9954V31.1426ZM32.8632 38.2266C32.664 38.5195 32.4277 38.7422 32.1542 38.8945C31.8847 39.0469 31.5761 39.123 31.2284 39.123C30.4472 39.123 29.8398 38.8379 29.4062 38.2676C28.9765 37.6973 28.7616 36.9434 28.7616 36.0059V35.8828C28.7616 34.8828 28.9784 34.0762 29.412 33.4629C29.8456 32.8496 30.455 32.543 31.2402 32.543C31.5566 32.543 31.8417 32.6133 32.0956 32.7539C32.3495 32.8906 32.5722 33.0859 32.7636 33.3398V31.0664L31.8495 30.8906V29.8594H32.7636H34.4745V37.7988L35.2948 37.9746V39H32.9921L32.8632 38.2266ZM30.4726 36.0059C30.4726 36.5605 30.5644 36.998 30.748 37.3184C30.9355 37.6348 31.2402 37.793 31.662 37.793C31.912 37.793 32.1288 37.7422 32.3124 37.6406C32.496 37.5391 32.6464 37.3926 32.7636 37.2012V34.5117C32.6464 34.3086 32.496 34.1523 32.3124 34.043C32.1327 33.9297 31.9198 33.873 31.6737 33.873C31.2558 33.873 30.9511 34.0586 30.7597 34.4297C30.5683 34.8008 30.4726 35.2852 30.4726 35.8828V36.0059ZM39.2349 39.123C38.3209 39.123 37.5904 38.8301 37.0435 38.2441C36.4966 37.6582 36.2232 36.9141 36.2232 36.0117V35.7773C36.2232 34.8359 36.481 34.0605 36.9966 33.4512C37.5162 32.8418 38.2115 32.5391 39.0826 32.543C39.938 32.543 40.6021 32.8008 41.0748 33.3164C41.5474 33.832 41.7838 34.5293 41.7838 35.4082V36.3398H37.9986L37.9869 36.375C38.0181 36.793 38.1568 37.1367 38.4029 37.4062C38.6529 37.6758 38.9908 37.8105 39.4166 37.8105C39.7955 37.8105 40.1099 37.7734 40.3599 37.6992C40.6099 37.6211 40.8834 37.5 41.1802 37.3359L41.6431 38.3906C41.3814 38.5977 41.0416 38.7715 40.6236 38.9121C40.2095 39.0527 39.7466 39.123 39.2349 39.123ZM39.0826 33.8613C38.7662 33.8613 38.5162 33.9824 38.3326 34.2246C38.149 34.4668 38.0357 34.7852 37.9927 35.1797L38.0103 35.209H40.108V35.0566C40.108 34.6934 40.022 34.4043 39.8502 34.1895C39.6822 33.9707 39.4263 33.8613 39.0826 33.8613Z" fill="#32312D"/>
</svg>
